<?xml version="1.0" encoding="utf-8"?>
<!-- Generator: Adobe Illustrator 25.2.1, SVG Export Plug-In . SVG Version: 6.00 Build 0)  -->
<svg version="1.1" id="Layer_1" xmlns="http://www.w3.org/2000/svg" xmlns:xlink="http://www.w3.org/1999/xlink" x="0px" y="0px"
	 viewBox="0 0 968.7 317.8" style="enable-background:new 0 0 968.7 317.8;" xml:space="preserve">
<style type="text/css">
	.st0{fill:#626948;}
	.st1{fill:#EA99A3;}
</style>
<g>
	<path class="st0" d="M292.6,107.5c-2-13.5-8.1-25-17.5-34.7c-9.8-10.1-21.7-18.3-33.1-26.3c-11.8-8.3-24.2-16.1-38-20.5
		c-5.5-1.8-14.1-3.1-22.4-3.9C130.6,17,75.7,34.2,44.7,76.7c-15,20.6-24.1,45.8-23.9,71.5c0.2,28.2,12.3,54.9,29.9,76.5
		c18.8,23,43.7,40.1,69.5,54.4c13.9,7.6,28.5,14.6,44.3,17.1c14.9,2.4,30.2-0.3,44-6.5c23.7-10.7,43.9-30.2,58-51.7
		c16.6-25.2,24-54,26.2-83.9C293.7,138.8,294.8,122.7,292.6,107.5z M291.5,132.9c-0.6,30.2-4.1,60.6-17.6,87.9
		c-11.7,23.6-29.7,44.4-51.8,58.9c-11.8,7.7-25.2,13.6-39.4,15c-15.4,1.5-30.6-2.8-44.5-9c-26-11.5-51.3-27.7-71.9-47.4
		c-20.5-19.5-36.8-44.5-41.9-72.7c-4.5-24.9,0.7-50.7,12.5-72.8c29.4-55,90.3-73.9,155-67.5c24.7,4,46,20.2,65.5,35
		c10.7,8.1,21.5,17.2,27.7,29.4C291.8,103,291.8,118.3,291.5,132.9z"/>
	<g>
		<path class="st0" d="M299.7,136.4c-4.1-14.6-14.6-26.8-24-38.3c-36-44.3-81.7-87.7-145.6-85.2c-11.5,0.5-26.7,1.5-41,20.1
			C78.9,46.4,72,62.1,63.6,76.6c-8.8,15.1-17.7,30.1-26.3,45.3c-7.5,13.2-14.6,26.8-19.1,41.3c-4.2,13.5-6.1,28-3.3,42
			c2.6,13,8.9,25.1,17.3,35.4c18,21.9,45.4,35,72.2,42.6c25.8,7.3,54.1,9.4,79.7,0.4c25.8-9.1,43.3-29.5,58.9-50.9
			c8-11,15.7-22.2,24.6-32.4c8.8-10.2,19.4-19,26.6-30.5C300.6,159.6,303,148.1,299.7,136.4z M298.4,154.9
			c-2.8,12.7-12.2,22.6-20.9,31.7c-8.3,8.6-16.1,17.4-23.3,27c-15,20.1-28.6,42.3-49.4,57c-22,15.5-49.7,19.1-75.9,15.6
			c-50.8-6.6-117.3-40.2-113.2-100.2c2.3-33.5,23.5-63.5,39.9-91.7c9.1-15.7,18.8-33.1,27.9-48.8C90.2,34,100.3,21,116.1,17.2
			C173,6.9,223,41.3,260.5,83.3c9.2,10.3,18.2,21,26.2,32.3C294.7,127,301.6,140.6,298.4,154.9z"/>
	</g>
	<g>
		<path class="st1" d="M250.5,209.3c-1.9-14-16.4-41.2-33-52.1c18.4-14,28.7-39.1,30.2-53.1l0.2-1.6l-1.5-0.6
			c-13.1-5.1-44-5.6-61.5,3.7c-3.3-22.9-20.3-44.1-31.8-52.1l-1.3-0.9l-1.2,1c-9.8,8.2-23.4,31-26.2,50c-19.8-7.9-43.7-6.1-55.9-1.7
			l-1.5,0.5l0.1,1.6c1.1,14,14.2,42,30.2,53.8c-19.1,13-30.8,37.5-33,51.4l-0.2,1.6l1.4,0.7c6.8,3.1,18.7,5.2,31.1,5.2
			c10.9,0,22.1-1.6,30.5-5.5c2.1,23,17.9,45.1,29,53.8l1.2,1l1.3-0.9c11.3-8.4,28.1-34.3,29.5-54.1c9.7,4.3,20.6,6,30.9,6
			c12.1,0,23.2-2.3,30.2-5.3l1.5-0.6L250.5,209.3z M158,213.8c0.4,0.7,0.6,3.1,0.3,4.3c-0.3,1.1-1,1.9-1.8,2.3
			c-0.5,0.2-1,0.2-1.1,0.1c-0.1-0.1-0.3-0.3-0.3-1.4c0-1,0.1-2.3,0.9-3.4C156.8,214.3,157.6,213.8,158,213.8z M128,109.9
			c0.7,0.3,1.3,0.7,2,1c15.5,8.9,22.1,32.9,24.4,43.4c-8.2-6.5-25.7-22.7-26.4-43.2C127.9,110.8,128,110.4,128,109.9z M181.1,113
			c-0.7,16-13.8,32.5-20.8,40.1C162,143.3,167.1,124,181.1,113z M150.6,159.2c-9.6,2.7-29.2,6.6-45.2-1.2
			C120.2,151.7,140.6,156.3,150.6,159.2z M154.1,165.1c-2.3,9.7-8.4,28.7-22.9,39C132.7,188.1,146.7,172.4,154.1,165.1z
			 M183.9,203.8c-13.2-9.1-20.2-28.9-23-38.9C168.3,171.6,182,186.2,183.9,203.8z M209.3,157.6c-14.4,7.1-35.1,3.6-45.2,1.2
			C173.5,155.6,192.9,150.7,209.3,157.6z M243.3,105.4c-2,13.6-12.4,37.3-29.8,49.7c-16.3-8.2-35.4-4.9-46.9-1.4
			c10.1-9.9,22.5-21.2,37.5-21.3c0.1,0,0.1,0,0.2,0c0,0,0.1,0.1,0.1,0.1c1.1,0.7,2.4,1.1,3.7,1.1c0.7,0,1.4-0.1,2.1-0.3
			c1.5-0.4,6.6-3.1,5.9-6.5c-0.1-0.2-0.2-0.5-0.3-0.7c0,0,0,0,0,0c-0.9-1.6-2.7-2.5-5.6-2.7c-1.7-0.1-3.6,0.4-5.3,1.6
			c-1.5,0.9-2.3,2-2.5,3.3c-0.1,0.3,0,0.6,0,0.9c-10.6,0.6-20,6.3-28,12.9c6-9.1,11.3-20.5,10.8-31.8
			C200.5,101.1,229.9,101,243.3,105.4z M205.7,128.6c0-0.1,0.1-0.4,1-1c0.8-0.5,1.9-1,3.1-1c0.1,0,0.1,0,0.2,0
			c1.6,0.1,2.5,0.5,2.7,0.8c-0.4,0.7-2.3,2.1-3.5,2.5c-1,0.3-2.2,0.2-2.9-0.3C205.9,129.3,205.6,128.9,205.7,128.6z M151.9,57.9
			c10.9,8.3,26.6,28.9,29,50.1c-14.9,10.1-21.2,28.1-23.8,39.8c-3.3-12.5-10.5-32-25.1-40.4c-1.2-0.7-2.5-1.4-3.8-2
			C130.3,88.2,142.7,66.5,151.9,57.9z M71.4,105.4c11.9-3.7,34.4-4.9,52.5,2.6c-0.1,1.1-0.1,2.3-0.1,3.4
			c0.5,14.3,8.2,26.4,15.9,35.1c-8.3-7.8-17.5-13.8-33-15.5c-0.3-1.4-1.3-2.7-3-4c-1.4-1-3.2-1.6-5.3-1.7c-1.7-0.1-3,0.4-3.9,1.3
			c-1.1,1.2-1.4,3-0.7,4.7c0.7,1.8,2.3,3.2,4.3,3.9c0.6,0.2,1.8,0.4,3.2,0.4c1.6,0,3.4-0.3,4.5-1.3c17.1,1.7,25.9,8.9,35.3,18.3
			c-12-2.4-28-3.6-40.2,3C86.2,145.7,73.3,119.3,71.4,105.4z M99.2,131.9c-1-0.3-1.9-1.1-2.2-1.9c-0.2-0.5-0.2-1,0-1.1
			c0.1-0.1,0.3-0.3,1.2-0.3c0.1,0,0.1,0,0.2,0c1,0,2.3,0.2,3.4,1c1.3,1,1.8,1.8,1.8,2.2C102.8,132.2,100.4,132.3,99.2,131.9z
			 M68.6,208.3c2.7-13.5,14.4-36.6,32.4-48c8.4,4.8,17.8,6.5,26.5,6.5c8.4,0,16.2-1.5,21.8-2.9c-8.6,8.8-22.3,25.5-22.4,42.8
			C111.1,214.9,81.7,213.4,68.6,208.3z M157.4,260.6c-10.4-8.9-25-30.3-26.3-51.6c15.1-9.1,22.4-26.2,25.7-37.8
			c3.3,11.9,5.3,26,0.2,39.3c-1.4,0.4-2.7,1.5-3.9,3.3c-1,1.4-1.5,3.3-1.4,5.4c0,1.7,0.5,3,1.5,3.8c0.7,0.6,1.6,0.9,2.6,0.9
			c0.7,0,1.4-0.2,2.1-0.5c1.8-0.8,3.1-2.5,3.7-4.5c0.3-1.3,0.7-5.7-1.3-7.6c3.7-9.8,3.7-19.8,2.3-29.2c4.5,10.1,11.4,21,21.5,26.7
			C183.7,226.7,168.1,251.6,157.4,260.6z M188.2,206.3c-0.8-19.1-14.1-34.7-22.6-42.8c5.8,1.3,13.7,2.6,22.1,2.6
			c9,0,18.4-1.5,26.1-6.2c15.4,9,29.7,34.7,32.3,48.5C233.2,213.1,207.4,215.6,188.2,206.3z"/>
	</g>
</g>
<g>
	<path class="st0" d="M496.4,264.1c-0.2,1.2-0.7,3.4-0.8,4.2h-1.7c0.1-0.7,0.3-1.9,0.6-3.1c-0.8,1.6-2.5,3.4-6.2,3.4
		c-3.5,0-4.6-2.2-4.6-4.2c0-4.9,4.8-5.8,8-6.1c2-0.2,3.6-0.2,4.3-0.2l0.3-1.4c0.4-1.8,0.2-4.2-3.6-4.2c-3.3,0-4.4,1.7-5,3.3H486
		c0.5-2.4,2.4-4.9,6.8-4.9c3.7,0,5.9,1.8,5.1,5.6L496.4,264.1z M495.7,259.6c-0.8,0-2,0-3.8,0.2c-2.9,0.2-6.3,0.9-6.3,4.5
		c0,1.5,1,2.8,3.2,2.8c4.1,0,6-3.1,7-7.2L495.7,259.6z"/>
	<path class="st0" d="M520.5,256.3c0.3-1.7,0.7-3.5,1-5h1.6c0,0.4-0.4,2.4-0.7,3.9c1.3-2.6,3.8-4.3,6.2-4.3l-0.4,1.8
		c-3.3,0.4-5.9,3.3-6.7,7.2l-1.8,8.3H518L520.5,256.3z"/>
	<path class="st0" d="M547.8,251.3h3l1.1-5.1h1.7l-1.1,5.1h3.9l-0.4,1.5h-3.9l-2.4,11.4c-0.4,1.9-0.3,2.7,1.2,2.7
		c0.5,0,1.3,0,1.8-0.2l-0.4,1.5c-0.7,0.2-1.3,0.3-1.9,0.3c-2.1,0-3.1-0.8-2.6-3.5l2.6-12.1h-3L547.8,251.3z"/>
	<path class="st0" d="M574.9,259.8c-0.1,0.9-0.2,1.3-0.2,2c0,3.6,1.8,5.2,4.4,5.2c2.9,0,4.3-1.7,5.2-3.3h1.7
		c-1.2,2.7-3.2,4.9-7.2,4.9c-4.1,0-5.9-2.8-5.9-6.6c0-5,2.7-11.1,8.7-11.1c4.3,0,5.6,2.9,5.6,5.8c0,0.9-0.1,1.8-0.4,3.1H574.9z
		 M585.6,258.3c0.1-0.5,0.1-1,0.1-1.5c0-2.9-1.4-4.2-4.1-4.2c-2.9,0-5.2,2.1-6.3,5.8H585.6z"/>
	<path class="st0" d="M633.2,268.3l3.2-15.4h-2.9l0.3-1.5h2.9l0.6-2.9c0.6-2.9,2-5.4,5.3-5.4c0.8,0,1.4,0.1,1.7,0.3l-0.3,1.6
		c-0.4-0.1-1.1-0.2-1.6-0.2c-1.8,0-2.9,1.3-3.4,3.8l-0.6,2.9h3.7l-0.3,1.5h-3.7l-3.2,15.4H633.2z"/>
	<path class="st0" d="M659,268.3l5.3-25h1.7l-5.3,25H659z"/>
	<path class="st0" d="M698.3,257.8c0,4.8-2.7,10.8-8.7,10.8c-3.7,0-6-2.4-6-6.7c0-4.8,2.8-10.9,8.7-10.9
		C696,251,698.3,253.6,698.3,257.8z M685.2,261.9c0,3.1,1.6,5.2,4.5,5.2c4.6,0,6.8-5.1,6.8-9.1c0-3.3-1.4-5.4-4.5-5.4
		C687.6,252.6,685.2,257.7,685.2,261.9z"/>
	<path class="st0" d="M720.1,256.3c0.3-1.7,0.7-3.5,1-5h1.6c0,0.4-0.4,2.4-0.7,3.9c1.3-2.6,3.8-4.3,6.2-4.3l-0.4,1.8
		c-3.3,0.4-5.9,3.3-6.7,7.2l-1.8,8.3h-1.7L720.1,256.3z"/>
	<path class="st0" d="M757.2,264.1c-0.2,1.2-0.7,3.4-0.8,4.2h-1.7c0.1-0.7,0.3-1.9,0.6-3.1c-0.8,1.6-2.5,3.4-6.2,3.4
		c-3.5,0-4.6-2.2-4.6-4.2c0-4.9,4.8-5.8,8-6.1c2-0.2,3.6-0.2,4.3-0.2l0.3-1.4c0.4-1.8,0.2-4.2-3.6-4.2c-3.3,0-4.4,1.7-5,3.3h-1.7
		c0.5-2.4,2.4-4.9,6.8-4.9c3.7,0,5.9,1.8,5.1,5.6L757.2,264.1z M756.6,259.6c-0.8,0-2,0-3.8,0.2c-2.9,0.2-6.3,0.9-6.3,4.5
		c0,1.5,1,2.8,3.2,2.8c4.1,0,6-3.1,7-7.2L756.6,259.6z"/>
	<path class="st0" d="M778.9,268.3l5.3-25h1.7l-5.3,25H778.9z"/>
</g>
<g>
	<g>
		<g>
			<path class="st0" d="M375.5,215.5L375.5,215.5c-8.9-0.1-16.7-1.6-23.4-4.8c-6.8-3.1-11.6-7.1-14.4-11.9l6.2-5
				c4.4,6.8,9.1,11.5,14.2,14.1c5.1,2.6,10.8,3.9,17.1,3.9l0.2,0.1c3.9,0,7.6-0.5,11-1.4c3.4-0.9,6.3-2.6,8.5-5s3.3-5.9,3.3-10.5
				c0-3.7-1.3-6.9-3.8-9.6c-2.5-2.6-5.8-5-9.8-7.2s-8.4-4.2-13.2-6.3c-5.8-2.4-11.6-5.2-17.2-8.3l-0.7-0.4
				c-5.8-3-10.2-6.8-13.1-11.4c-1.7-2.7-2.5-5.8-2.5-9.5c0-6.5,3.4-12.1,10.1-16.6c6-4.1,14.2-6.3,24.7-6.6h0.3
				c8.4,0,15.6,1.7,21.5,5c5.6,3.1,9.7,7,12.3,11.7l-6.2,5c-2.3-5.3-5.9-9.6-10.8-13c-4.9-3.3-10.5-5-16.8-5v-0.1h-0.1
				c-16.1,0-24.1,5.8-24.1,17.5c0,3.3,1.4,6.2,4.1,8.8c2.7,2.6,6.3,5.1,10.7,7.4c4.4,2.3,9.1,4.6,14.2,6.8c10.7,4.7,18,8.6,22,11.8
				c6.2,5,9.3,11.3,9.3,18.7c0,5.5-2.9,10.4-8.8,14.8C394.4,213,386.1,215.3,375.5,215.5z"/>
		</g>
		<g>
			<path class="st0" d="M459.4,215.6h-2.7c-24.1-1-36.1-16-36.1-45v-43.6c-0.1-2-0.4-3.6-1-4.8c-0.4-0.8-1-1.4-1.6-1.6l-0.8-0.2
				v-0.9h17.8v0.9l-0.8,0.2c-0.6,0.2-1.2,0.7-1.6,1.5c-0.6,1.1-1,2.6-1,4.3v41c0,6.7,0.2,12.8,0.7,18.1c0.5,5.4,2,9.9,4.4,13.8
				c5.3,7.7,12.5,11.7,21.6,12h0.1c7.3,0,12.8-1,16.5-3c3.5-1.9,6-4,7.6-6.4c4.1-6.2,6.2-13,6.2-20.4V127c-0.1-2-0.4-3.6-1-4.8
				c-0.4-0.8-1-1.4-1.6-1.6l-0.8-0.1v-1h10.6v1h-0.2c-0.8,0-1.5,0.6-2.2,1.8c-0.5,0.9-0.9,2.5-1,4.7l0.1,54.8
				c0,6.9-1.3,12.8-3.8,17.7c-2.5,4.8-5.8,8.6-9.9,11.3c-4.1,2.7-8.6,4.3-13.5,4.8C463.1,215.6,461.2,215.6,459.4,215.6z"/>
		</g>
		<g>
			<path class="st0" d="M594.6,215.2l-17.8,0.1v-1h0.2c0.8,0,1.5-0.6,2.1-1.6c0.6-1,1-2.5,1.1-4.4v-78.6l-31.9,85.6h-4L509.1,128
				v79.6c0.1,2.9,0.7,4.9,1.9,5.9c0.5,0.4,1,0.7,1.4,0.7h0.2v1l-7.1-0.1H502v-1h0.2c0.9,0,1.6-0.6,2.2-1.7c0.6-1.1,0.9-2.7,1-4.8
				v-81.3c-0.1-2.9-0.8-4.8-1.9-5.8c-0.5-0.4-1-0.7-1.4-0.7H502v-1h15.5l32.6,81.3l30.3-81.3h14.3v1h-0.2c-0.8,0.1-1.6,0.7-2.2,1.8
				c-0.6,1.1-1,2.7-1,4.8v80.3c0,2.3,0.3,4.1,0.9,5.4c0.4,0.9,1,1.6,1.6,1.9l0.9,0.1V215.2z"/>
		</g>
		<g>
			<path class="st0" d="M685.5,215.5h-18.9v-1l0.1-0.1c0.9-0.2,1.4-0.9,1.5-2.1c0-0.4,0-1-0.1-1.7c-0.1-0.7-3.2-10-9.3-27.9h-40.2
				l-8.4,24.3c-0.7,1.8-1,3.4-1,4.6c0,1.3,0.3,2.2,1,2.6l0.6,0.2v1h-11v-1l0.6-0.1c0.4-0.1,0.9-0.3,1.5-0.7c1.5-1,2.8-2.8,3.9-5.5
				l31-89h11.7l31,89.1c0.6,1.5,1.3,2.7,2,3.6c0.7,0.9,1.3,1.5,1.9,1.9c0.6,0.4,1.1,0.6,1.5,0.7l0.6,0.1V215.5z M657.5,179.2
				l-18.7-54.3l-18.9,54.3H657.5z"/>
		</g>
		<g>
			<g>
				<path class="st0" d="M769,167.5c0-13.5-4.1-24.9-12.2-34.1c-8.1-9.3-18.6-13.9-31.6-13.9c-13,0-23.5,4.6-31.7,13.9
					c-8.1,9.3-12.2,20.6-12.2,34.1c0,0,0,0.1,0,0.1c0,0,0,0.1,0,0.1c0,13.5,4.1,24.9,12.2,34.1c8.1,9.3,18.7,13.9,31.7,13.9
					c13,0,23.5-4.6,31.6-13.9c8.1-9.3,12.2-20.6,12.2-34.1c0,0,0-0.1,0-0.1C769,167.6,769,167.6,769,167.5z M758.1,167.7
					C758.1,167.7,758.1,167.7,758.1,167.7L758.1,167.7c0,0.1,0,0.1,0,0.1c0,13.4-3.2,24.2-9.6,32.3c-6.4,8.1-14.2,12.1-23.4,12.1
					c-9.3,0-17.1-4.1-23.4-12.3c-6.3-8.2-9.4-18.9-9.4-32c0,0,0,0,0-0.1h0c0,0,0-0.1,0-0.1c0,0,0-0.1,0-0.1h0c0,0,0,0,0-0.1
					c0-13.1,3.1-23.8,9.4-32c6.3-8.2,14.1-12.3,23.4-12.3c9.2,0,17,4,23.4,12.1c6.4,8.1,9.6,18.8,9.6,32.3
					C758.1,167.5,758.1,167.6,758.1,167.7L758.1,167.7C758.1,167.6,758.1,167.6,758.1,167.7z"/>
			</g>
		</g>
		<g>
			<path class="st0" d="M784.7,216.1c-2,0-3.7-0.7-5-2c-1.4-1.4-2-3-2-4.9c0-1.9,0.7-3.6,2-4.9c1.4-1.4,3-2,5-2c1.9,0,3.6,0.7,4.9,2
				c1.4,1.4,2,3,2,4.9c0,1.9-0.7,3.6-2,4.9C788.3,215.4,786.6,216.1,784.7,216.1z"/>
		</g>
		<g>
			<path class="st0" d="M824.2,215.5h-17.8v-1l0.2-0.1c0.5,0,1-0.2,1.4-0.7c1.2-1.1,1.9-3.3,1.9-6.5v-79.8c-0.1-3.9-1-6.1-2.6-6.8
				c-0.3-0.1-0.6-0.2-0.9-0.2v-1h36.9c7.3,0,13.3,1.3,18,3.8c4.7,2.5,8.3,5.7,10.6,9.7s3.5,8.2,3.5,12.7c0,4.5-1.1,8.8-3.3,12.9
				c-2.2,4.1-5.7,7.5-10.4,10.1c-4.7,2.6-10.8,3.9-18.2,3.9h-22.6v36.1c0.2,3.2,1.1,5.1,2.6,5.7l0.7,0.1V215.5z M838.1,168.9
				c7.9,0,14.2-2,19.1-6.1c4.9-4.1,7.3-9.8,7.3-17.2c0-6.7-2.4-12.1-7.1-16.3c-4.8-4.2-11.2-6.2-19.3-6.2l-17.2,0.1v45.7H838.1z"/>
		</g>
		<g>
			<path class="st0" d="M937.9,211.7c3.4,0,5.9-0.6,7.3-1.7c1.5-1.2,2.4-2.3,2.9-3.3l-0.7,5.1l-0.4,3.6h-1.9h-9.7h-37.5h-14.3v-1
				c0.3,0,0.6-0.1,0.8-0.1c0.2-0.1,0.5-0.3,0.8-0.6c0.3-0.3,0.6-0.7,0.8-1.2c0.2-0.5,0.5-1.1,0.6-1.9c0.2-0.8,0.3-1.7,0.3-2.9v-0.6
				v-80.2c-0.1-1.2-0.2-2.2-0.3-2.9s-0.4-1.4-0.6-1.9c-0.2-0.5-0.5-0.9-0.8-1.2c-0.3-0.3-0.6-0.5-0.8-0.6c-0.2-0.1-0.5-0.2-0.8-0.2
				v-1h14.3h37.5h9.7h1.9l0.4,3.6l0.7,5.1c-0.5-1-1.5-2.1-2.9-3.3c-1.5-1.2-3.9-1.7-7.3-1.7h-40v42.4h28c1.2,0,2.2-0.1,3-0.3
				c0.8-0.2,1.5-0.4,2-0.7c0.5-0.2,0.9-0.5,1.1-0.8c0.2-0.3,0.4-0.6,0.6-0.8c0.1-0.2,0.2-0.5,0.2-0.8h1v3.4v3.6v0.1v3.4h-1
				c0-0.3-0.1-0.6-0.2-0.9c-0.1-0.3-0.3-0.5-0.6-0.8c-0.3-0.3-0.7-0.5-1.2-0.8c-0.5-0.3-1.2-0.5-2-0.7c-0.8-0.2-1.8-0.3-3.1-0.3
				h-27.9v42.7H937.9z"/>
		</g>
	</g>
	<g>
		<path class="st0" d="M738.2,198.4c-3.4-0.8-10-0.9-15.7,1.4l-2.2,1c5.5-0.6,11.8,0.7,15.3,2c8.4,3.2,24.9,23.8,38.5,24.8
			c4.7,0.3,8.4,0,11.3-1.4l1.5-0.7l-0.9,0C764.2,222.6,750.7,201.3,738.2,198.4z"/>
	</g>
</g>
</svg>
