<?xml version="1.0" encoding="utf-8"?>
<!-- Generator: Adobe Illustrator 25.2.1, SVG Export Plug-In . SVG Version: 6.00 Build 0)  -->
<svg version="1.1" id="Isolation_Mode" xmlns="http://www.w3.org/2000/svg" xmlns:xlink="http://www.w3.org/1999/xlink" x="0px"
	 y="0px" viewBox="0 0 78.7 81.7" style="enable-background:new 0 0 78.7 81.7;" xml:space="preserve">
<style type="text/css">
	.st0{fill:#A6BB91;}
	.st1{fill:#EB99A4;}
</style>
<path class="st0" d="M73.4,30c-0.5-3.4-2-6.3-4.4-8.7c-2.5-2.5-5.4-4.6-8.3-6.6c-3-2.1-6.1-4-9.5-5.1c-1.4-0.4-3.5-0.8-5.6-1
	c-12.8-1.3-26.5,3-34.3,13.7c-3.8,5.2-6,11.5-6,17.9c0,7.1,3.1,13.8,7.5,19.2c4.7,5.8,10.9,10.1,17.4,13.6c3.5,1.9,7.1,3.6,11.1,4.3
	c3.7,0.6,7.6-0.1,11-1.6c5.9-2.7,11-7.6,14.5-12.9c4.2-6.3,6-13.5,6.6-21C73.7,37.8,73.9,33.8,73.4,30z M73.1,36.3
	c-0.2,7.6-1,15.2-4.4,22c-2.9,5.9-7.4,11.1-13,14.8c-3,1.9-6.3,3.4-9.9,3.8c-3.9,0.4-7.7-0.7-11.2-2.3c-6.5-2.9-12.9-7-18-11.9
	c-5.1-4.9-9.2-11.2-10.5-18.2C5,38.3,6.3,31.8,9.3,26.3C16.7,12.5,31.9,7.8,48.2,9.4c6.2,1,11.5,5.1,16.4,8.8c2.7,2,5.4,4.3,6.9,7.4
	C73.2,28.9,73.2,32.7,73.1,36.3z"/>
<g>
	<path class="st0" d="M75.2,37.2c-1-3.7-3.7-6.7-6-9.6c-9-11.1-20.5-22-36.5-21.3c-2.9,0.1-6.7,0.4-10.3,5
		c-2.6,3.3-4.3,7.3-6.4,10.9c-2.2,3.8-4.4,7.5-6.6,11.4c-1.9,3.3-3.7,6.7-4.8,10.3c-1.1,3.4-1.5,7-0.8,10.5c0.6,3.3,2.2,6.3,4.3,8.9
		c4.5,5.5,11.4,8.8,18.1,10.7c6.5,1.8,13.6,2.4,20,0.1c6.5-2.3,10.8-7.4,14.8-12.8c2-2.7,3.9-5.6,6.2-8.1c2.2-2.6,4.9-4.8,6.7-7.6
		C75.4,43,76,40.2,75.2,37.2z M74.9,41.9c-0.7,3.2-3.1,5.7-5.2,8c-2.1,2.2-4,4.4-5.8,6.8c-3.8,5-7.2,10.6-12.4,14.3
		c-5.5,3.9-12.5,4.8-19,3.9C19.6,73.1,3,64.7,4,49.7c0.6-8.4,5.9-15.9,10-23c2.3-3.9,4.7-8.3,7-12.2c1.7-2.9,4.2-6.2,8.2-7.1
		c14.3-2.6,26.8,6,36.2,16.6c2.3,2.6,4.6,5.3,6.6,8.1C73.9,34.9,75.6,38.3,74.9,41.9z"/>
</g>
<g>
	<path class="st1" d="M62.8,55.5c-0.5-3.5-4.1-10.3-8.3-13.1c4.6-3.5,7.2-9.8,7.6-13.3l0-0.4l-0.4-0.1c-3.3-1.3-11-1.4-15.4,0.9
		c-0.8-5.7-5.1-11-8-13.1l-0.3-0.2l-0.3,0.3c-2.5,2.1-5.9,7.8-6.6,12.5c-5-2-10.9-1.5-14-0.4l-0.4,0.1l0,0.4
		c0.3,3.5,3.6,10.5,7.6,13.5c-4.8,3.3-7.7,9.4-8.3,12.9l-0.1,0.4l0.4,0.2c1.7,0.8,4.7,1.3,7.8,1.3c2.7,0,5.5-0.4,7.7-1.4
		c0.5,5.8,4.5,11.3,7.3,13.5l0.3,0.2l0.3-0.2c2.8-2.1,7-8.6,7.4-13.6c2.4,1.1,5.2,1.5,7.7,1.5c3,0,5.8-0.6,7.6-1.3l0.4-0.2
		L62.8,55.5z M39.7,56.6c0.1,0.2,0.2,0.8,0.1,1.1c-0.1,0.3-0.2,0.5-0.5,0.6c-0.1,0.1-0.2,0-0.3,0c0,0-0.1-0.1-0.1-0.3
		c0-0.2,0-0.6,0.2-0.9C39.4,56.8,39.5,56.6,39.7,56.6z M32.1,30.6c0.2,0.1,0.3,0.2,0.5,0.3c3.9,2.2,5.6,8.2,6.1,10.9
		c-2-1.6-6.4-5.7-6.6-10.8C32.1,30.8,32.1,30.7,32.1,30.6z M45.4,31.4c-0.2,4-3.5,8.1-5.2,10.1C40.7,39,41.9,34.1,45.4,31.4z
		 M37.8,42.9c-2.4,0.7-7.3,1.6-11.3-0.3C30.2,41,35.3,42.2,37.8,42.9z M38.7,44.4c-0.6,2.4-2.1,7.2-5.8,9.8
		C33.3,50.2,36.8,46.2,38.7,44.4z M46.1,54.1c-3.3-2.3-5.1-7.3-5.8-9.8C42.2,46,45.7,49.7,46.1,54.1z M52.5,42.5
		c-3.6,1.8-8.8,0.9-11.3,0.3C43.5,42,48.4,40.8,52.5,42.5z M61,29.4c-0.5,3.4-3.1,9.4-7.5,12.5c-4.1-2.1-8.9-1.2-11.8-0.4
		c2.5-2.5,5.6-5.3,9.4-5.3c0,0,0,0,0.1,0c0,0,0,0,0,0c0.3,0.2,0.6,0.3,0.9,0.3c0.2,0,0.3,0,0.5-0.1c0.4-0.1,1.7-0.8,1.5-1.6
		c0-0.1,0-0.1-0.1-0.2c0,0,0,0,0,0c-0.2-0.4-0.7-0.6-1.4-0.7c-0.4,0-0.9,0.1-1.3,0.4c-0.4,0.2-0.6,0.5-0.6,0.8c0,0.1,0,0.2,0,0.2
		c-2.7,0.2-5,1.6-7,3.2c1.5-2.3,2.8-5.1,2.7-8C50.3,28.4,57.7,28.4,61,29.4z M51.6,35.3c0,0,0-0.1,0.2-0.2c0.2-0.1,0.5-0.3,0.8-0.3
		c0,0,0,0,0.1,0c0.4,0,0.6,0.1,0.7,0.2c-0.1,0.2-0.6,0.5-0.9,0.6c-0.3,0.1-0.5,0-0.7-0.1C51.6,35.4,51.6,35.3,51.6,35.3z M38.1,17.5
		c2.7,2.1,6.7,7.2,7.3,12.6c-3.7,2.5-5.3,7-6,10c-0.8-3.1-2.6-8-6.3-10.1c-0.3-0.2-0.6-0.3-0.9-0.5C32.7,25.1,35.8,19.7,38.1,17.5z
		 M17.9,29.4c3-0.9,8.6-1.2,13.2,0.7c0,0.3,0,0.6,0,0.8c0.1,3.6,2,6.6,4,8.8c-2.1-1.9-4.4-3.5-8.3-3.9c-0.1-0.3-0.3-0.7-0.8-1
		c-0.3-0.3-0.8-0.4-1.3-0.4c-0.4,0-0.8,0.1-1,0.3c-0.3,0.3-0.3,0.8-0.2,1.2c0.2,0.4,0.6,0.8,1.1,1c0.1,0,0.5,0.1,0.8,0.1
		c0.4,0,0.9-0.1,1.1-0.3c4.3,0.4,6.5,2.2,8.8,4.6c-3-0.6-7-0.9-10.1,0.8C21.6,39.5,18.4,32.9,17.9,29.4z M24.9,36.1
		c-0.3-0.1-0.5-0.3-0.6-0.5c0-0.1,0-0.2,0-0.3c0,0,0.1-0.1,0.3-0.1c0,0,0,0,0,0c0.2,0,0.6,0.1,0.8,0.3c0.3,0.2,0.4,0.4,0.5,0.6
		C25.8,36.2,25.2,36.2,24.9,36.1z M17.2,55.3c0.7-3.4,3.6-9.2,8.1-12c2.1,1.2,4.5,1.6,6.7,1.6c2.1,0,4.1-0.4,5.5-0.7
		c-2.1,2.2-5.6,6.4-5.6,10.7C27.9,56.9,20.5,56.5,17.2,55.3z M39.5,68.4c-2.6-2.2-6.3-7.6-6.6-12.9c3.8-2.3,5.6-6.6,6.4-9.5
		c0.8,3,1.3,6.5,0.1,9.8c-0.3,0.1-0.7,0.4-1,0.8c-0.2,0.4-0.4,0.8-0.4,1.3c0,0.4,0.1,0.8,0.4,1c0.2,0.2,0.4,0.2,0.7,0.2
		c0.2,0,0.4,0,0.5-0.1c0.4-0.2,0.8-0.6,0.9-1.1c0.1-0.3,0.2-1.4-0.3-1.9c0.9-2.4,0.9-5,0.6-7.3c1.1,2.5,2.9,5.3,5.4,6.7
		C46.1,59.9,42.2,66.1,39.5,68.4z M47.2,54.7C47,50,43.7,46,41.5,44c1.4,0.3,3.4,0.6,5.5,0.6c2.3,0,4.6-0.4,6.5-1.6
		c3.9,2.3,7.4,8.7,8.1,12.2C58.5,56.5,52,57.1,47.2,54.7z"/>
</g>
</svg>
