<?xml version="1.0" encoding="utf-8"?>
<!-- Generator: Adobe Illustrator 25.2.1, SVG Export Plug-In . SVG Version: 6.00 Build 0)  -->
<svg version="1.1" id="Isolation_Mode" xmlns="http://www.w3.org/2000/svg" xmlns:xlink="http://www.w3.org/1999/xlink" x="0px"
	 y="0px" viewBox="0 0 135.1 100.2" style="enable-background:new 0 0 135.1 100.2;" xml:space="preserve">
<style type="text/css">
	.st0{fill:#FDE1DC;}
</style>
<g>
	<g>
		<path class="st0" d="M35.8,96c-0.1,0.3-0.1,0.7-0.2,0.9h-0.4c0-0.2,0.1-0.4,0.1-0.7c-0.2,0.3-0.5,0.7-1.3,0.7c-0.7,0-1-0.5-1-0.9
			c0-1.1,1-1.3,1.7-1.3c0.4,0,0.8,0,0.9,0l0.1-0.3c0.1-0.4,0-0.9-0.8-0.9c-0.7,0-1,0.4-1.1,0.7h-0.4c0.1-0.5,0.5-1,1.5-1
			c0.8,0,1.3,0.4,1.1,1.2L35.8,96z M35.7,95c-0.2,0-0.4,0-0.8,0c-0.6,0.1-1.4,0.2-1.4,1c0,0.3,0.2,0.6,0.7,0.6
			C35.1,96.6,35.5,96,35.7,95L35.7,95z"/>
		<path class="st0" d="M41.1,94.3c0.1-0.4,0.2-0.7,0.2-1.1h0.3c0,0.1-0.1,0.5-0.2,0.8c0.3-0.6,0.8-0.9,1.3-0.9l-0.1,0.4
			c-0.7,0.1-1.3,0.7-1.5,1.5l-0.4,1.8h-0.4L41.1,94.3z"/>
		<path class="st0" d="M46.9,93.3h0.7l0.2-1.1h0.4L48,93.3h0.8l-0.1,0.3h-0.8L47.4,96c-0.1,0.4-0.1,0.6,0.3,0.6c0.1,0,0.3,0,0.4,0
			l-0.1,0.3C47.8,97,47.7,97,47.5,97c-0.5,0-0.7-0.2-0.6-0.8l0.6-2.6h-0.7L46.9,93.3z"/>
		<path class="st0" d="M52.8,95.1c0,0.2,0,0.3,0,0.4c0,0.8,0.4,1.1,1,1.1c0.6,0,0.9-0.4,1.1-0.7h0.4C55,96.5,54.5,97,53.7,97
			c-0.9,0-1.3-0.6-1.3-1.4c0-1.1,0.6-2.4,1.9-2.4c0.9,0,1.2,0.6,1.2,1.2c0,0.2,0,0.4-0.1,0.7H52.8z M55.1,94.8c0-0.1,0-0.2,0-0.3
			c0-0.6-0.3-0.9-0.9-0.9c-0.6,0-1.1,0.5-1.4,1.2H55.1z"/>
		<path class="st0" d="M65.4,96.9l0.7-3.3h-0.6l0.1-0.3h0.6l0.1-0.6c0.1-0.6,0.4-1.2,1.1-1.2c0.2,0,0.3,0,0.4,0.1l-0.1,0.3
			c-0.1,0-0.2,0-0.3,0c-0.4,0-0.6,0.3-0.7,0.8l-0.1,0.6h0.8l-0.1,0.3h-0.8l-0.7,3.3H65.4z"/>
		<path class="st0" d="M71,96.9l1.1-5.4h0.4l-1.1,5.4H71z"/>
		<path class="st0" d="M79.4,94.7c0,1-0.6,2.3-1.9,2.3c-0.8,0-1.3-0.5-1.3-1.5c0-1,0.6-2.4,1.9-2.4C79,93.2,79.4,93.8,79.4,94.7z
			 M76.6,95.5c0,0.7,0.3,1.1,1,1.1c1,0,1.5-1.1,1.5-2c0-0.7-0.3-1.2-1-1.2C77.1,93.5,76.6,94.6,76.6,95.5z"/>
		<path class="st0" d="M84.2,94.3c0.1-0.4,0.2-0.7,0.2-1.1h0.3c0,0.1-0.1,0.5-0.2,0.8c0.3-0.6,0.8-0.9,1.3-0.9l-0.1,0.4
			c-0.7,0.1-1.3,0.7-1.5,1.5L84,96.9h-0.4L84.2,94.3z"/>
		<path class="st0" d="M92.2,96c-0.1,0.3-0.1,0.7-0.2,0.9h-0.4c0-0.2,0.1-0.4,0.1-0.7c-0.2,0.3-0.5,0.7-1.3,0.7c-0.7,0-1-0.5-1-0.9
			c0-1.1,1-1.3,1.7-1.3c0.4,0,0.8,0,0.9,0l0.1-0.3c0.1-0.4,0-0.9-0.8-0.9c-0.7,0-1,0.4-1.1,0.7h-0.4c0.1-0.5,0.5-1,1.5-1
			c0.8,0,1.3,0.4,1.1,1.2L92.2,96z M92,95c-0.2,0-0.4,0-0.8,0c-0.6,0.1-1.4,0.2-1.4,1c0,0.3,0.2,0.6,0.7,0.6
			C91.4,96.6,91.8,96,92,95L92,95z"/>
		<path class="st0" d="M96.8,96.9l1.1-5.4h0.4l-1.1,5.4H96.8z"/>
	</g>
	<g>
		<path class="st0" d="M94.5,22.3c-0.4-2.7-1.6-5-3.5-6.9c-2-2-4.3-3.6-6.6-5.3C82,8.5,79.6,6.9,76.8,6c-1.3-0.4-2.6-0.7-4-0.7
			c-0.1,0-0.2,0.1-0.2,0.1C62.3,4.1,51.3,7.5,45,16.1c-3,4.1-4.8,9.2-4.8,14.3c0,5.6,2.5,11,6,15.3c3.8,4.6,8.7,8,13.9,10.9
			c2.6,1.5,5.4,2.8,8.4,3.3c2.8,0.5,5.7,0.2,8.4-0.9c5.1-2,9.4-6.1,12.4-10.7c3.3-5,4.8-10.8,5.2-16.8C94.7,28.6,95,25.4,94.5,22.3z
			 M94.3,27.4c-0.1,6-0.8,12.1-3.5,17.6c-2.3,4.7-5.9,8.9-10.4,11.8c-2.4,1.5-5,2.7-7.9,3c-3.1,0.3-6.1-0.6-8.9-1.8
			c-5.2-2.3-10.3-5.5-14.4-9.5c-4.1-3.9-7.4-8.9-8.4-14.5c-0.9-5,0.1-10.1,2.5-14.6C49.3,8.4,62.3,4,74.2,6.1c0.1,0,0.2-0.1,0.2-0.2
			c4.9,0.8,9.2,4,13.1,7c2.1,1.6,4.3,3.4,5.5,5.9C94.4,21.4,94.4,24.5,94.3,27.4z"/>
	</g>
	<g>
		<path class="st0" d="M95.9,28.2c-0.8-2.9-2.9-5.4-4.8-7.7C83.9,11.6,74.8,3,62,3.5c-2.3,0.1-5.3,0.3-8.2,4c-2,2.7-3.4,5.8-5.1,8.7
			c-1.8,3-3.5,6-5.3,9.1c-1.5,2.6-2.9,5.3-3.8,8.3c-0.8,2.7-1.2,5.6-0.7,8.4c0.5,2.6,1.8,5,3.5,7.1c3.6,4.4,9.1,7,14.4,8.5
			c5.2,1.5,10.8,1.9,15.9,0.1c5.2-1.8,8.6-5.9,11.8-10.2c1.6-2.2,3.1-4.4,4.9-6.5c1.8-2,3.9-3.8,5.3-6.1
			C96.1,32.8,96.6,30.5,95.9,28.2z M95.7,31.9c-0.6,2.5-2.4,4.5-4.2,6.3c-1.7,1.7-3.2,3.5-4.6,5.4c-3,4-5.7,8.5-9.9,11.4
			c-4.4,3.1-9.9,3.8-15.2,3.1c-10.2-1.3-23.4-8-22.6-20c0.5-6.7,4.7-12.7,8-18.3c1.8-3.1,3.7-6.3,5.5-9.4C54,8,56.5,5,59.2,4.3
			c11.4-2.1,21.6,5.1,28.9,13.2c1.8,2.1,3.6,4.2,5.2,6.5C95,26.3,96.3,29,95.7,31.9z"/>
	</g>
	<g>
		<path class="st0" d="M86.1,42.6c-0.4-2.8-3.3-8.2-6.6-10.4c3.7-2.8,5.7-7.8,6-10.6l0-0.3l-0.3-0.1c-2.6-1-8.8-1.1-12.3,0.7
			c-0.7-4.6-4.1-8.8-6.4-10.4l-0.3-0.2l-0.2,0.2c-2,1.6-4.7,6.2-5.2,10c-4-1.6-8.7-1.2-11.2-0.3l-0.3,0.1l0,0.3
			c0.2,2.8,2.8,8.4,6,10.7c-3.8,2.6-6.2,7.5-6.6,10.3l0,0.3l0.3,0.1c1.4,0.6,3.7,1,6.2,1c2.2,0,4.4-0.3,6.1-1.1
			c0.4,4.6,3.6,9,5.8,10.7l0.2,0.2l0.3-0.2c2.3-1.7,5.6-6.9,5.9-10.8c1.9,0.9,4.1,1.2,6.2,1.2c2.4,0,4.6-0.5,6-1.1l0.3-0.1
			L86.1,42.6z M67.6,43.5c0.1,0.1,0.1,0.6,0.1,0.9c-0.1,0.2-0.2,0.4-0.4,0.5c-0.1,0-0.2,0-0.2,0c0,0-0.1-0.1-0.1-0.3
			c0-0.2,0-0.5,0.2-0.7C67.4,43.6,67.5,43.5,67.6,43.5z M61.6,22.8c0.1,0.1,0.3,0.1,0.4,0.2c3.1,1.8,4.4,6.6,4.9,8.7
			c-1.6-1.3-5.1-4.5-5.3-8.6C61.6,22.9,61.6,22.8,61.6,22.8z M72.2,23.4c-0.1,3.2-2.8,6.5-4.2,8C68.4,29.4,69.5,25.6,72.2,23.4z
			 M66.2,32.6c-1.9,0.5-5.8,1.3-9-0.2C60.1,31.1,64.2,32,66.2,32.6z M66.8,33.8c-0.5,1.9-1.7,5.7-4.6,7.8
			C62.6,38.4,65.4,35.2,66.8,33.8z M72.8,41.5c-2.6-1.8-4-5.8-4.6-7.8C69.7,35.1,72.4,38,72.8,41.5z M77.9,32.3
			c-2.9,1.4-7,0.7-9,0.2C70.7,31.9,74.6,30.9,77.9,32.3z M84.7,21.8c-0.4,2.7-2.5,7.5-6,9.9c-3.3-1.6-7.1-1-9.4-0.3
			c2-2,4.5-4.2,7.5-4.3c0,0,0,0,0,0c0,0,0,0,0,0c0.2,0.1,0.5,0.2,0.7,0.2c0.1,0,0.3,0,0.4-0.1c0.3-0.1,1.3-0.6,1.2-1.3
			c0,0,0-0.1-0.1-0.1c0,0,0,0,0,0c-0.2-0.3-0.5-0.5-1.1-0.5c-0.3,0-0.7,0.1-1.1,0.3c-0.3,0.2-0.5,0.4-0.5,0.7c0,0.1,0,0.1,0,0.2
			c-2.1,0.1-4,1.3-5.6,2.6c1.2-1.8,2.3-4.1,2.2-6.4C76.1,21,82,21,84.7,21.8z M77.2,26.5c0,0,0-0.1,0.2-0.2c0.2-0.1,0.4-0.2,0.6-0.2
			c0,0,0,0,0,0c0.3,0,0.5,0.1,0.5,0.2c-0.1,0.1-0.5,0.4-0.7,0.5c-0.2,0.1-0.4,0-0.6-0.1C77.2,26.6,77.1,26.5,77.2,26.5z M66.4,12.4
			c2.2,1.7,5.3,5.8,5.8,10c-3,2-4.2,5.6-4.8,8c-0.7-2.5-2.1-6.4-5-8.1c-0.2-0.1-0.5-0.3-0.8-0.4C62.1,18.4,64.6,14.1,66.4,12.4z
			 M50.3,21.8c2.4-0.7,6.9-1,10.5,0.5c0,0.2,0,0.5,0,0.7c0.1,2.9,1.6,5.3,3.2,7c-1.7-1.5-3.5-2.8-6.6-3.1c-0.1-0.3-0.3-0.5-0.6-0.8
			c-0.3-0.2-0.6-0.3-1.1-0.3c-0.3,0-0.6,0.1-0.8,0.3c-0.2,0.2-0.3,0.6-0.1,0.9c0.1,0.4,0.5,0.6,0.9,0.8c0.1,0,0.4,0.1,0.6,0.1
			c0.3,0,0.7-0.1,0.9-0.3c3.4,0.3,5.2,1.8,7.1,3.7c-2.4-0.5-5.6-0.7-8,0.6C53.3,29.9,50.7,24.6,50.3,21.8z M55.9,27.2
			c-0.2-0.1-0.4-0.2-0.4-0.4c0-0.1,0-0.2,0-0.2c0,0,0.1-0.1,0.2-0.1c0,0,0,0,0,0c0.2,0,0.5,0,0.7,0.2c0.3,0.2,0.4,0.4,0.4,0.4
			C56.6,27.2,56.1,27.2,55.9,27.2z M49.8,42.4c0.5-2.7,2.9-7.3,6.5-9.6c1.7,1,3.6,1.3,5.3,1.3c1.7,0,3.2-0.3,4.3-0.6
			c-1.7,1.8-4.5,5.1-4.5,8.5C58.3,43.7,52.4,43.4,49.8,42.4z M67.5,52.9c-2.1-1.8-5-6-5.3-10.3c3-1.8,4.5-5.2,5.1-7.5
			c0.7,2.4,1.1,5.2,0,7.8c-0.3,0.1-0.5,0.3-0.8,0.7c-0.2,0.3-0.3,0.7-0.3,1.1c0,0.3,0.1,0.6,0.3,0.8c0.1,0.1,0.3,0.2,0.5,0.2
			c0.1,0,0.3,0,0.4-0.1c0.4-0.2,0.6-0.5,0.7-0.9c0.1-0.3,0.1-1.1-0.3-1.5c0.7-2,0.7-4,0.5-5.8c0.9,2,2.3,4.2,4.3,5.3
			C72.8,46.1,69.6,51.1,67.5,52.9z M73.7,42c-0.2-3.8-2.8-6.9-4.5-8.6c1.2,0.3,2.7,0.5,4.4,0.5c1.8,0,3.7-0.3,5.2-1.2
			c3.1,1.8,5.9,6.9,6.5,9.7C82.7,43.4,77.5,43.9,73.7,42z"/>
	</g>
	<g>
		<g>
			<g>
				<path class="st0" d="M9.8,85.5L9.8,85.5c-1.9,0-3.6-0.4-5.1-1S2.2,83,1.6,81.9l1.3-1.1c1,1.5,2,2.5,3.1,3
					c1.1,0.6,2.3,0.8,3.7,0.8l0,0c0.8,0,1.6-0.1,2.4-0.3c0.7-0.2,1.4-0.6,1.8-1.1c0.5-0.5,0.7-1.3,0.7-2.3c0-0.8-0.3-1.5-0.8-2.1
					c-0.5-0.6-1.3-1.1-2.1-1.5s-1.8-0.9-2.8-1.4c-1.3-0.5-2.5-1.1-3.7-1.8L5,74.2c-1.3-0.6-2.2-1.5-2.8-2.5
					c-0.4-0.6-0.5-1.3-0.5-2.1c0-1.4,0.7-2.6,2.2-3.6c1.3-0.9,3.1-1.4,5.3-1.4h0.1c1.8,0,3.4,0.4,4.6,1.1c1.2,0.7,2.1,1.5,2.7,2.5
					l-1.3,1.1c-0.5-1.1-1.3-2.1-2.3-2.8c-1-0.7-2.3-1.1-3.6-1.1v0h0c-3.5,0-5.2,1.3-5.2,3.8c0,0.7,0.3,1.3,0.9,1.9
					c0.6,0.6,1.4,1.1,2.3,1.6c0.9,0.5,2,1,3.1,1.5c2.3,1,3.9,1.9,4.8,2.6c1.3,1.1,2,2.4,2,4c0,1.2-0.6,2.2-1.9,3.2
					C13.8,85,12,85.5,9.8,85.5z"/>
			</g>
			<g>
				<path class="st0" d="M27.9,85.5h-0.6c-5.2-0.2-7.8-3.5-7.8-9.7v-9.4c0-0.4-0.1-0.8-0.2-1c-0.1-0.2-0.2-0.3-0.4-0.4l-0.2,0v-0.2
					h3.8V65l-0.2,0c-0.1,0.1-0.3,0.2-0.3,0.3c-0.1,0.2-0.2,0.6-0.2,0.9v8.9c0,1.5,0.1,2.8,0.2,3.9s0.4,2.1,0.9,3
					c1.1,1.7,2.7,2.5,4.7,2.6h0c1.6,0,2.8-0.2,3.6-0.6c0.7-0.4,1.3-0.9,1.6-1.4c0.9-1.3,1.3-2.8,1.3-4.4V66.4c0-0.4-0.1-0.8-0.2-1
					c-0.1-0.2-0.2-0.3-0.3-0.4l-0.2,0v-0.2h2.3V65h0c-0.2,0-0.3,0.1-0.5,0.4c-0.1,0.2-0.2,0.5-0.2,1l0,11.8c0,1.5-0.3,2.8-0.8,3.8
					c-0.5,1-1.3,1.9-2.1,2.4c-0.9,0.6-1.9,0.9-2.9,1C28.7,85.5,28.3,85.5,27.9,85.5z"/>
			</g>
			<g>
				<path class="st0" d="M57.1,85.4l-3.8,0v-0.2h0c0.2,0,0.3-0.1,0.4-0.3c0.1-0.2,0.2-0.5,0.2-1V67l-6.9,18.5h-0.9l-7.6-18.8v17.2
					c0,0.6,0.2,1.1,0.4,1.3c0.1,0.1,0.2,0.1,0.3,0.1h0v0.2l-1.5,0h-0.8v-0.2h0c0.2,0,0.4-0.1,0.5-0.4c0.1-0.2,0.2-0.6,0.2-1V66.3
					c0-0.6-0.2-1-0.4-1.3c-0.1-0.1-0.2-0.2-0.3-0.2h0v-0.2h3.3l7,17.6L54,64.6h3.1v0.2h0c-0.2,0-0.3,0.2-0.5,0.4
					c-0.1,0.2-0.2,0.6-0.2,1v17.3c0,0.5,0.1,0.9,0.2,1.2c0.1,0.2,0.2,0.3,0.4,0.4l0.2,0V85.4z"/>
			</g>
			<g>
				<path class="st0" d="M76.7,85.5h-4.1v-0.2l0,0c0.2,0,0.3-0.2,0.3-0.4c0-0.1,0-0.2,0-0.4c0-0.1-0.7-2.2-2-6h-8.7l-1.8,5.2
					c-0.2,0.4-0.2,0.7-0.2,1c0,0.3,0.1,0.5,0.2,0.6l0.1,0v0.2h-2.4v-0.2l0.1,0c0.1,0,0.2-0.1,0.3-0.2c0.3-0.2,0.6-0.6,0.9-1.2
					l6.7-19.2h2.5L75.4,84c0.1,0.3,0.3,0.6,0.4,0.8c0.2,0.2,0.3,0.3,0.4,0.4c0.1,0.1,0.2,0.1,0.3,0.2l0.1,0V85.5z M70.6,77.7
					l-4-11.7l-4.1,11.7H70.6z"/>
			</g>
			<g>
				<g>
					<path class="st0" d="M94.7,75.2c0-2.9-0.9-5.4-2.6-7.4c-1.7-2-4-3-6.8-3c-2.8,0-5.1,1-6.8,3c-1.8,2-2.6,4.5-2.6,7.4
						c0,0,0,0,0,0c0,0,0,0,0,0c0,2.9,0.9,5.4,2.6,7.4c1.8,2,4,3,6.8,3c2.8,0,5.1-1,6.8-3C93.8,80.6,94.7,78.1,94.7,75.2
						C94.7,75.2,94.7,75.2,94.7,75.2C94.7,75.2,94.7,75.2,94.7,75.2z M92.4,75.2C92.4,75.2,92.4,75.2,92.4,75.2L92.4,75.2
						C92.4,75.2,92.4,75.2,92.4,75.2c0,2.9-0.7,5.3-2.1,7c-1.4,1.7-3.1,2.6-5,2.6c-2,0-3.7-0.9-5.1-2.7c-1.4-1.8-2-4.1-2-6.9
						c0,0,0,0,0,0h0c0,0,0,0,0,0c0,0,0,0,0,0h0c0,0,0,0,0,0c0-2.8,0.7-5.1,2-6.9c1.4-1.8,3-2.7,5.1-2.7c2,0,3.7,0.9,5,2.6
						C91.7,69.9,92.4,72.3,92.4,75.2C92.4,75.2,92.4,75.2,92.4,75.2L92.4,75.2C92.4,75.2,92.4,75.2,92.4,75.2z"/>
				</g>
			</g>
			<g>
				<path class="st0" d="M98.1,85.7c-0.4,0-0.8-0.1-1.1-0.4c-0.3-0.3-0.4-0.7-0.4-1.1c0-0.4,0.1-0.8,0.4-1.1
					c0.3-0.3,0.7-0.4,1.1-0.4c0.4,0,0.8,0.1,1.1,0.4c0.3,0.3,0.4,0.6,0.4,1.1c0,0.4-0.1,0.8-0.4,1.1S98.5,85.7,98.1,85.7z"/>
			</g>
			<g>
				<path class="st0" d="M106.6,85.5h-3.8v-0.2l0,0c0.1,0,0.2,0,0.3-0.1c0.3-0.2,0.4-0.7,0.4-1.4V66.5c0-0.8-0.2-1.3-0.6-1.5
					c-0.1,0-0.1,0-0.2,0v-0.2h8c1.6,0,2.9,0.3,3.9,0.8c1,0.5,1.8,1.2,2.3,2.1c0.5,0.9,0.7,1.8,0.7,2.7c0,1-0.2,1.9-0.7,2.8
					c-0.5,0.9-1.2,1.6-2.2,2.2c-1,0.6-2.3,0.9-3.9,0.9h-4.9v7.8c0.1,0.7,0.2,1.1,0.6,1.2l0.2,0V85.5z M109.6,75.5
					c1.7,0,3.1-0.4,4.1-1.3c1-0.9,1.6-2.1,1.6-3.7c0-1.4-0.5-2.6-1.5-3.5c-1-0.9-2.4-1.3-4.2-1.3l-3.7,0v9.9H109.6z"/>
			</g>
			<g>
				<path class="st0" d="M131.2,84.7c0.7,0,1.3-0.1,1.6-0.4c0.3-0.3,0.5-0.5,0.6-0.7l-0.1,1.1l-0.1,0.8h-0.4h-2.1h-8.1h-3.1v-0.2
					c0.1,0,0.1,0,0.2,0c0.1,0,0.1-0.1,0.2-0.1c0.1-0.1,0.1-0.1,0.2-0.2c0.1-0.1,0.1-0.2,0.1-0.4c0-0.2,0.1-0.4,0.1-0.6v-0.1V66.4
					c0-0.3,0-0.5-0.1-0.6c0-0.2-0.1-0.3-0.1-0.4c-0.1-0.1-0.1-0.2-0.2-0.2c-0.1-0.1-0.1-0.1-0.2-0.1c-0.1,0-0.1,0-0.2,0v-0.2h3.1
					h8.1h2.1h0.4l0.1,0.8l0.1,1.1c-0.1-0.2-0.3-0.5-0.6-0.7c-0.3-0.3-0.8-0.4-1.6-0.4h-8.6v9.1h6.1c0.3,0,0.5,0,0.6-0.1
					c0.2,0,0.3-0.1,0.4-0.1c0.1-0.1,0.2-0.1,0.2-0.2c0.1-0.1,0.1-0.1,0.1-0.2c0-0.1,0-0.1,0-0.2h0.2v0.7v0.8v0v0.7h-0.2
					c0-0.1,0-0.1,0-0.2c0-0.1-0.1-0.1-0.1-0.2c-0.1-0.1-0.1-0.1-0.2-0.2c-0.1-0.1-0.2-0.1-0.4-0.1c-0.2,0-0.4-0.1-0.7-0.1h-6v9.2
					H131.2z"/>
			</g>
		</g>
		<g>
			<path class="st0" d="M88.1,81.8c-0.7-0.2-2.2-0.2-3.4,0.3l-0.5,0.2c1.2-0.1,2.5,0.1,3.3,0.4c1.8,0.7,5.4,5.1,8.3,5.4
				c1,0.1,1.8,0,2.4-0.3l0.3-0.2l-0.2,0C93.7,87,90.8,82.5,88.1,81.8z"/>
		</g>
	</g>
</g>
</svg>
