<?xml version="1.0" encoding="utf-8"?>
<!-- Generator: Adobe Illustrator 25.2.1, SVG Export Plug-In . SVG Version: 6.00 Build 0)  -->
<svg version="1.1" id="Capa_1" xmlns="http://www.w3.org/2000/svg" xmlns:xlink="http://www.w3.org/1999/xlink" x="0px" y="0px"
	 viewBox="0 0 171 127" style="enable-background:new 0 0 171 127;" xml:space="preserve">
<style type="text/css">
	.st0{fill:#CC9D87;}
	.st1{fill:#B0BF91;}
	.st2{fill:#EC9EAA;}
	.st3{fill:#B3C192;}
</style>
<g>
	<g>
		<path class="st0" d="M46.2,120.9c-0.1,0.3-0.2,0.9-0.2,1.1h-0.4c0-0.2,0.1-0.5,0.2-0.8c-0.2,0.4-0.7,0.9-1.7,0.9
			c-0.9,0-1.3-0.6-1.3-1.1c0-1.3,1.3-1.6,2.2-1.7c0.5,0,1,0,1.2-0.1l0.1-0.4c0.1-0.5,0-1.1-1-1.1c-0.9,0-1.2,0.5-1.3,0.9h-0.5
			c0.1-0.6,0.7-1.3,1.9-1.3c1,0,1.6,0.5,1.4,1.5L46.2,120.9z M46,119.7c-0.2,0-0.6,0-1,0c-0.8,0.1-1.7,0.2-1.7,1.2
			c0,0.4,0.3,0.8,0.9,0.8C45.2,121.7,45.7,120.8,46,119.7L46,119.7z"/>
		<path class="st0" d="M52.7,118.8c0.1-0.5,0.2-0.9,0.3-1.4h0.4c0,0.1-0.1,0.7-0.2,1.1c0.3-0.7,1-1.2,1.7-1.2l-0.1,0.5
			c-0.9,0.1-1.6,0.9-1.8,1.9l-0.5,2.3H52L52.7,118.8z"/>
		<path class="st0" d="M60.1,117.4h0.8l0.3-1.4h0.4l-0.3,1.4h1.1l-0.1,0.4h-1.1l-0.6,3.1c-0.1,0.5-0.1,0.7,0.3,0.7
			c0.1,0,0.3,0,0.5,0l-0.1,0.4c-0.2,0.1-0.4,0.1-0.5,0.1c-0.6,0-0.9-0.2-0.7-1l0.7-3.3H60L60.1,117.4z"/>
		<path class="st0" d="M67.4,119.7c0,0.2,0,0.4,0,0.5c0,1,0.5,1.4,1.2,1.4c0.8,0,1.2-0.4,1.4-0.9h0.5c-0.3,0.7-0.9,1.3-1.9,1.3
			c-1.1,0-1.6-0.8-1.6-1.8c0-1.3,0.7-3,2.3-3c1.2,0,1.5,0.8,1.5,1.6c0,0.2,0,0.5-0.1,0.8H67.4z M70.3,119.3c0-0.1,0-0.3,0-0.4
			c0-0.8-0.4-1.1-1.1-1.1c-0.8,0-1.4,0.6-1.7,1.6H70.3z"/>
		<path class="st0" d="M83.2,122l0.9-4.2h-0.8l0.1-0.4h0.8l0.2-0.8c0.2-0.8,0.5-1.5,1.4-1.5c0.2,0,0.4,0,0.5,0.1l-0.1,0.4
			c-0.1,0-0.3-0.1-0.4-0.1c-0.5,0-0.8,0.3-0.9,1l-0.2,0.8h1l-0.1,0.4h-1l-0.9,4.2H83.2z"/>
		<path class="st0" d="M90.2,122l1.4-6.8h0.4l-1.4,6.8H90.2z"/>
		<path class="st0" d="M100.9,119.2c0,1.3-0.7,2.9-2.4,2.9c-1,0-1.6-0.7-1.6-1.8c0-1.3,0.8-3,2.4-3
			C100.2,117.3,100.9,118.1,100.9,119.2z M97.3,120.3c0,0.9,0.4,1.4,1.2,1.4c1.3,0,1.8-1.4,1.8-2.5c0-0.9-0.4-1.5-1.2-1.5
			C98,117.8,97.3,119.1,97.3,120.3z"/>
		<path class="st0" d="M106.8,118.8c0.1-0.5,0.2-0.9,0.3-1.4h0.4c0,0.1-0.1,0.7-0.2,1.1c0.3-0.7,1-1.2,1.7-1.2l-0.1,0.5
			c-0.9,0.1-1.6,0.9-1.8,1.9l-0.5,2.3h-0.4L106.8,118.8z"/>
		<path class="st0" d="M116.8,120.9c-0.1,0.3-0.2,0.9-0.2,1.1h-0.4c0-0.2,0.1-0.5,0.2-0.8c-0.2,0.4-0.7,0.9-1.7,0.9
			c-0.9,0-1.3-0.6-1.3-1.1c0-1.3,1.3-1.6,2.2-1.7c0.5,0,1,0,1.2-0.1l0.1-0.4c0.1-0.5,0-1.1-1-1.1c-0.9,0-1.2,0.5-1.3,0.9H114
			c0.1-0.6,0.7-1.3,1.9-1.3c1,0,1.6,0.5,1.4,1.5L116.8,120.9z M116.6,119.7c-0.2,0-0.6,0-1,0c-0.8,0.1-1.7,0.2-1.7,1.2
			c0,0.4,0.3,0.8,0.9,0.8C115.9,121.7,116.4,120.8,116.6,119.7L116.6,119.7z"/>
		<path class="st0" d="M122.7,122l1.4-6.8h0.4l-1.4,6.8H122.7z"/>
	</g>
	<path class="st1" d="M119.8,27.8c-0.5-3.4-2-6.3-4.4-8.7c-2.5-2.5-5.4-4.6-8.3-6.6c-3-2.1-6.1-4-9.5-5.1c-1.4-0.4-3.5-0.8-5.6-1
		c-12.8-1.3-26.5,3-34.3,13.7c-3.8,5.2-6,11.5-6,17.9c0,7.1,3.1,13.8,7.5,19.2c4.7,5.8,10.9,10.1,17.4,13.6
		c3.5,1.9,7.1,3.6,11.1,4.3c3.7,0.6,7.6-0.1,11-1.6c5.9-2.7,11-7.6,14.5-12.9c4.2-6.3,6-13.5,6.6-21
		C120.1,35.6,120.3,31.6,119.8,27.8z M119.5,34.1c-0.2,7.6-1,15.2-4.4,22c-2.9,5.9-7.4,11.1-13,14.8c-3,1.9-6.3,3.4-9.9,3.8
		c-3.9,0.4-7.7-0.7-11.2-2.3c-6.5-2.9-12.9-7-18-11.9c-5.1-4.9-9.2-11.2-10.5-18.2c-1.1-6.2,0.2-12.7,3.1-18.3
		C63.1,10.3,78.3,5.6,94.5,7.2c6.2,1,11.5,5.1,16.4,8.8c2.7,2,5.4,4.3,6.9,7.4C119.6,26.7,119.6,30.5,119.5,34.1z"/>
	<g>
		<path class="st1" d="M121.5,35c-1-3.7-3.7-6.7-6-9.6C106.5,14.3,95,3.4,79,4.1c-2.9,0.1-6.7,0.4-10.3,5c-2.6,3.3-4.3,7.3-6.4,10.9
			c-2.2,3.8-4.4,7.5-6.6,11.4c-1.9,3.3-3.7,6.7-4.8,10.3c-1.1,3.4-1.5,7-0.8,10.5c0.6,3.3,2.2,6.3,4.3,8.9
			c4.5,5.5,11.4,8.8,18.1,10.7c6.5,1.8,13.6,2.4,20,0.1c6.5-2.3,10.8-7.4,14.8-12.8c2-2.7,3.9-5.6,6.2-8.1c2.2-2.6,4.9-4.8,6.7-7.6
			C121.8,40.8,122.4,38,121.5,35z M121.2,39.7c-0.7,3.2-3.1,5.7-5.2,8c-2.1,2.2-4,4.4-5.8,6.8c-3.8,5-7.2,10.6-12.4,14.3
			c-5.5,3.9-12.5,4.8-19,3.9C66,70.9,49.3,62.5,50.4,47.5c0.6-8.4,5.9-15.9,10-23c2.3-3.9,4.7-8.3,7-12.2c1.7-2.9,4.2-6.2,8.2-7.1
			c14.3-2.6,26.8,6,36.2,16.6c2.3,2.6,4.6,5.3,6.6,8.1C120.3,32.7,122,36.1,121.2,39.7z"/>
	</g>
	<g>
		<path class="st2" d="M109.2,53.3c-0.5-3.5-4.1-10.3-8.3-13.1c4.6-3.5,7.2-9.8,7.6-13.3l0-0.4l-0.4-0.1c-3.3-1.3-11-1.4-15.4,0.9
			c-0.8-5.7-5.1-11-8-13.1L84.4,14l-0.3,0.3c-2.5,2.1-5.9,7.8-6.6,12.5c-5-2-10.9-1.5-14-0.4l-0.4,0.1l0,0.4
			c0.3,3.5,3.6,10.5,7.6,13.5c-4.8,3.3-7.7,9.4-8.3,12.9l-0.1,0.4l0.4,0.2c1.7,0.8,4.7,1.3,7.8,1.3c2.7,0,5.5-0.4,7.7-1.4
			c0.5,5.8,4.5,11.3,7.3,13.5l0.3,0.2l0.3-0.2c2.8-2.1,7-8.6,7.4-13.6c2.4,1.1,5.2,1.5,7.7,1.5c3,0,5.8-0.6,7.6-1.3l0.4-0.2
			L109.2,53.3z M86,54.4c0.1,0.2,0.2,0.8,0.1,1.1c-0.1,0.3-0.2,0.5-0.5,0.6c-0.1,0.1-0.2,0-0.3,0c0,0-0.1-0.1-0.1-0.3
			c0-0.2,0-0.6,0.2-0.9C85.7,54.6,85.9,54.4,86,54.4z M78.5,28.4c0.2,0.1,0.3,0.2,0.5,0.3c3.9,2.2,5.6,8.2,6.1,10.9
			c-2-1.6-6.4-5.7-6.6-10.8C78.5,28.6,78.5,28.5,78.5,28.4z M91.8,29.2c-0.2,4-3.5,8.1-5.2,10.1C87,36.8,88.3,31.9,91.8,29.2z
			 M84.2,40.7c-2.4,0.7-7.3,1.6-11.3-0.3C76.5,38.9,81.7,40,84.2,40.7z M85.1,42.2c-0.6,2.4-2.1,7.2-5.8,9.8
			C79.7,48,83.2,44,85.1,42.2z M92.5,51.9c-3.3-2.3-5.1-7.3-5.8-9.8C88.6,43.9,92,47.5,92.5,51.9z M98.9,40.3
			c-3.6,1.8-8.8,0.9-11.3,0.3C89.9,39.8,94.8,38.6,98.9,40.3z M107.4,27.3c-0.5,3.4-3.1,9.4-7.5,12.5c-4.1-2.1-8.9-1.2-11.8-0.4
			c2.5-2.5,5.6-5.3,9.4-5.3c0,0,0,0,0.1,0c0,0,0,0,0,0c0.3,0.2,0.6,0.3,0.9,0.3c0.2,0,0.3,0,0.5-0.1c0.4-0.1,1.7-0.8,1.5-1.6
			c0-0.1,0-0.1-0.1-0.2c0,0,0,0,0,0c-0.2-0.4-0.7-0.6-1.4-0.7c-0.4,0-0.9,0.1-1.3,0.4c-0.4,0.2-0.6,0.5-0.6,0.8c0,0.1,0,0.2,0,0.2
			c-2.7,0.2-5,1.6-7,3.2c1.5-2.3,2.8-5.1,2.7-8C96.7,26.2,104.1,26.2,107.4,27.3z M98,33.1c0,0,0-0.1,0.2-0.2
			c0.2-0.1,0.5-0.3,0.8-0.3c0,0,0,0,0.1,0c0.4,0,0.6,0.1,0.7,0.2c-0.1,0.2-0.6,0.5-0.9,0.6c-0.3,0.1-0.5,0-0.7-0.1
			C98,33.2,98,33.1,98,33.1z M84.5,15.4c2.7,2.1,6.7,7.2,7.3,12.6c-3.7,2.5-5.3,7-6,10c-0.8-3.1-2.6-8-6.3-10.1
			c-0.3-0.2-0.6-0.3-0.9-0.5C79.1,22.9,82.2,17.5,84.5,15.4z M64.3,27.3c3-0.9,8.6-1.2,13.2,0.7c0,0.3,0,0.6,0,0.8
			c0.1,3.6,2,6.6,4,8.8c-2.1-1.9-4.4-3.5-8.3-3.9c-0.1-0.3-0.3-0.7-0.8-1c-0.3-0.3-0.8-0.4-1.3-0.4c-0.4,0-0.8,0.1-1,0.3
			c-0.3,0.3-0.3,0.8-0.2,1.2c0.2,0.4,0.6,0.8,1.1,1c0.1,0,0.5,0.1,0.8,0.1c0.4,0,0.9-0.1,1.1-0.3c4.3,0.4,6.5,2.2,8.8,4.6
			c-3-0.6-7-0.9-10.1,0.8C68,37.4,64.8,30.7,64.3,27.3z M71.3,33.9c-0.3-0.1-0.5-0.3-0.6-0.5c0-0.1,0-0.2,0-0.3c0,0,0.1-0.1,0.3-0.1
			c0,0,0,0,0,0c0.2,0,0.6,0.1,0.8,0.3c0.3,0.2,0.4,0.4,0.5,0.6C72.2,34,71.6,34,71.3,33.9z M63.6,53.1c0.7-3.4,3.6-9.2,8.1-12
			c2.1,1.2,4.5,1.6,6.7,1.6c2.1,0,4.1-0.4,5.5-0.7c-2.1,2.2-5.6,6.4-5.6,10.7C74.3,54.7,66.9,54.3,63.6,53.1z M85.9,66.2
			c-2.6-2.2-6.3-7.6-6.6-12.9c3.8-2.3,5.6-6.6,6.4-9.5c0.8,3,1.3,6.5,0.1,9.8c-0.3,0.1-0.7,0.4-1,0.8c-0.2,0.4-0.4,0.8-0.4,1.3
			c0,0.4,0.1,0.8,0.4,1c0.2,0.2,0.4,0.2,0.7,0.2c0.2,0,0.4,0,0.5-0.1c0.4-0.2,0.8-0.6,0.9-1.1c0.1-0.3,0.2-1.4-0.3-1.9
			c0.9-2.4,0.9-5,0.6-7.3c1.1,2.5,2.9,5.3,5.4,6.7C92.5,57.7,88.6,63.9,85.9,66.2z M93.6,52.5c-0.2-4.8-3.5-8.7-5.7-10.7
			c1.4,0.3,3.4,0.6,5.5,0.6c2.3,0,4.6-0.4,6.5-1.6c3.9,2.3,7.4,8.7,8.1,12.2C104.9,54.3,98.4,54.9,93.6,52.5z"/>
	</g>
	<g>
		<g>
			<g>
				<path class="st3" d="M13.4,107.7L13.4,107.7c-2.4,0-4.5-0.4-6.4-1.3s-3.1-1.9-3.9-3.2l1.7-1.3c1.2,1.9,2.5,3.1,3.8,3.8
					c1.4,0.7,2.9,1,4.6,1l0.1,0c1.1,0,2.1-0.1,3-0.4c0.9-0.2,1.7-0.7,2.3-1.4c0.6-0.7,0.9-1.6,0.9-2.8c0-1-0.3-1.9-1-2.6
					c-0.7-0.7-1.6-1.4-2.7-1.9c-1.1-0.6-2.3-1.1-3.6-1.7c-1.6-0.7-3.1-1.4-4.7-2.2l-0.2-0.1c-1.6-0.8-2.8-1.8-3.5-3.1
					c-0.5-0.7-0.7-1.6-0.7-2.6c0-1.8,0.9-3.3,2.7-4.5c1.6-1.1,3.9-1.7,6.7-1.8h0.1c2.3,0,4.2,0.4,5.8,1.3c1.5,0.8,2.6,1.9,3.3,3.2
					l-1.7,1.3c-0.6-1.4-1.6-2.6-2.9-3.5c-1.3-0.9-2.8-1.4-4.5-1.4v0h0c-4.3,0-6.5,1.6-6.5,4.8c0,0.9,0.4,1.7,1.1,2.4
					c0.7,0.7,1.7,1.4,2.9,2c1.2,0.6,2.5,1.2,3.9,1.8c2.9,1.3,4.9,2.3,6,3.2c1.7,1.4,2.5,3,2.5,5.1c0,1.5-0.8,2.8-2.4,4
					C18.6,107,16.3,107.7,13.4,107.7z"/>
			</g>
			<g>
				<path class="st3" d="M36.2,107.8h-0.7c-6.5-0.3-9.8-4.3-9.8-12.2V83.8c0-0.5-0.1-1-0.3-1.3c-0.1-0.2-0.3-0.4-0.4-0.4L24.7,82
					v-0.2h4.8V82l-0.2,0.1c-0.2,0.1-0.3,0.2-0.4,0.4c-0.2,0.3-0.3,0.7-0.3,1.2v11.1c0,1.8,0.1,3.5,0.2,4.9c0.1,1.4,0.5,2.7,1.2,3.7
					c1.4,2.1,3.4,3.2,5.8,3.3h0c2,0,3.5-0.3,4.5-0.8c0.9-0.5,1.6-1.1,2.1-1.7c1.1-1.7,1.7-3.5,1.7-5.5V83.8c0-0.5-0.1-1-0.3-1.3
					c-0.1-0.2-0.3-0.4-0.4-0.4l-0.2,0v-0.3H46V82h-0.1c-0.2,0-0.4,0.2-0.6,0.5c-0.1,0.3-0.2,0.7-0.3,1.3l0,14.8c0,1.9-0.3,3.5-1,4.8
					c-0.7,1.3-1.6,2.3-2.7,3c-1.1,0.7-2.3,1.2-3.7,1.3C37.2,107.7,36.6,107.8,36.2,107.8z"/>
			</g>
			<g>
				<path class="st3" d="M72.8,107.6l-4.8,0v-0.3H68c0.2,0,0.4-0.2,0.6-0.4c0.2-0.3,0.3-0.7,0.3-1.2V84.5l-8.6,23.2h-1.1L49.6,84
					v21.6c0,0.8,0.2,1.3,0.5,1.6c0.1,0.1,0.3,0.2,0.4,0.2h0.1v0.3l-1.9,0h-0.9v-0.3h0.1c0.2,0,0.4-0.2,0.6-0.5
					c0.2-0.3,0.3-0.7,0.3-1.3v-22c0-0.8-0.2-1.3-0.5-1.6c-0.1-0.1-0.3-0.2-0.4-0.2h-0.1v-0.3h4.2l8.8,22l8.2-22h3.9v0.3h-0.1
					c-0.2,0-0.4,0.2-0.6,0.5c-0.2,0.3-0.3,0.7-0.3,1.3v21.8c0,0.6,0.1,1.1,0.2,1.5c0.1,0.3,0.3,0.4,0.4,0.5l0.2,0V107.6z"/>
			</g>
			<g>
				<path class="st3" d="M97.4,107.7h-5.1v-0.3l0,0c0.2-0.1,0.4-0.2,0.4-0.6c0-0.1,0-0.3,0-0.5c0-0.2-0.9-2.7-2.5-7.6H79.3l-2.3,6.6
					c-0.2,0.5-0.3,0.9-0.3,1.2c0,0.3,0.1,0.6,0.3,0.7l0.2,0.1v0.3h-3v-0.3l0.2,0c0.1,0,0.2-0.1,0.4-0.2c0.4-0.3,0.8-0.8,1.1-1.5
					l8.4-24.1h3.2l8.4,24.1c0.2,0.4,0.4,0.7,0.5,1c0.2,0.2,0.4,0.4,0.5,0.5c0.2,0.1,0.3,0.2,0.4,0.2l0.2,0V107.7z M89.8,97.9
					l-5.1-14.7l-5.1,14.7H89.8z"/>
			</g>
			<g>
				<g>
					<path class="st3" d="M120,94.7c0-3.6-1.1-6.7-3.3-9.2c-2.2-2.5-5-3.8-8.6-3.8c-3.5,0-6.4,1.3-8.6,3.8c-2.2,2.5-3.3,5.6-3.3,9.2
						c0,0,0,0,0,0c0,0,0,0,0,0c0,3.6,1.1,6.7,3.3,9.2c2.2,2.5,5.1,3.8,8.6,3.8c3.5,0,6.4-1.3,8.6-3.8C118.9,101.5,120,98.5,120,94.7
						C120,94.8,120,94.8,120,94.7C120,94.8,120,94.7,120,94.7z M117.1,94.8C117.1,94.8,117.1,94.8,117.1,94.8L117.1,94.8
						C117.1,94.8,117.1,94.8,117.1,94.8c0,3.7-0.9,6.6-2.6,8.8c-1.7,2.2-3.8,3.3-6.3,3.3c-2.5,0-4.6-1.1-6.3-3.3
						c-1.7-2.2-2.6-5.1-2.6-8.7c0,0,0,0,0,0h0c0,0,0,0,0,0c0,0,0,0,0,0h0c0,0,0,0,0,0c0-3.6,0.9-6.4,2.6-8.7
						c1.7-2.2,3.8-3.3,6.3-3.3c2.5,0,4.6,1.1,6.3,3.3C116.2,88.2,117.1,91.1,117.1,94.8C117.1,94.7,117.1,94.7,117.1,94.8
						L117.1,94.8C117.1,94.8,117.1,94.8,117.1,94.8z"/>
				</g>
			</g>
			<g>
				<path class="st3" d="M124.3,107.9c-0.5,0-1-0.2-1.4-0.6c-0.4-0.4-0.6-0.8-0.6-1.3c0-0.5,0.2-1,0.6-1.3c0.4-0.4,0.8-0.6,1.4-0.6
					c0.5,0,1,0.2,1.3,0.6c0.4,0.4,0.6,0.8,0.6,1.3c0,0.5-0.2,1-0.6,1.3C125.2,107.7,124.8,107.9,124.3,107.9z"/>
			</g>
			<g>
				<path class="st3" d="M134.9,107.7h-4.8v-0.3l0.1,0c0.1,0,0.3-0.1,0.4-0.2c0.3-0.3,0.5-0.9,0.5-1.8V83.9c0-1-0.3-1.7-0.7-1.9
					c-0.1,0-0.2-0.1-0.2-0.1v-0.3h10c2,0,3.6,0.3,4.9,1c1.3,0.7,2.2,1.6,2.9,2.6c0.6,1.1,0.9,2.2,0.9,3.4c0,1.2-0.3,2.4-0.9,3.5
					c-0.6,1.1-1.5,2-2.8,2.7c-1.3,0.7-2.9,1.1-4.9,1.1H134v9.8c0.1,0.9,0.3,1.4,0.7,1.5l0.2,0V107.7z M138.7,95.1
					c2.1,0,3.9-0.5,5.2-1.7c1.3-1.1,2-2.7,2-4.7c0-1.8-0.6-3.3-1.9-4.4c-1.3-1.1-3-1.7-5.2-1.7l-4.6,0v12.4H138.7z"/>
			</g>
			<g>
				<path class="st3" d="M165.7,106.7c0.9,0,1.6-0.2,2-0.5c0.4-0.3,0.7-0.6,0.8-0.9l-0.2,1.4l-0.1,1h-0.5h-2.6h-10.2H151v-0.3
					c0.1,0,0.2,0,0.2,0c0.1,0,0.1-0.1,0.2-0.2c0.1-0.1,0.2-0.2,0.2-0.3c0.1-0.1,0.1-0.3,0.2-0.5c0-0.2,0.1-0.5,0.1-0.8v-0.2V83.7
					c0-0.3,0-0.6-0.1-0.8c0-0.2-0.1-0.4-0.2-0.5c-0.1-0.1-0.1-0.2-0.2-0.3s-0.2-0.1-0.2-0.2c-0.1,0-0.1,0-0.2,0v-0.3h3.9h10.2h2.6
					h0.5l0.1,1l0.2,1.4c-0.1-0.3-0.4-0.6-0.8-0.9c-0.4-0.3-1.1-0.5-2-0.5h-10.8v11.5h7.6c0.3,0,0.6,0,0.8-0.1
					c0.2-0.1,0.4-0.1,0.5-0.2c0.1-0.1,0.2-0.1,0.3-0.2c0.1-0.1,0.1-0.2,0.2-0.2c0-0.1,0-0.1,0-0.2h0.3v0.9v1v0v0.9h-0.3
					c0-0.1,0-0.2,0-0.2c0-0.1-0.1-0.1-0.2-0.2c-0.1-0.1-0.2-0.1-0.3-0.2c-0.1-0.1-0.3-0.1-0.5-0.2c-0.2,0-0.5-0.1-0.8-0.1h-7.5v11.6
					H165.7z"/>
			</g>
		</g>
		<g>
			<path class="st3" d="M111.7,103.1c-0.9-0.2-2.7-0.3-4.3,0.4l-0.6,0.3c1.5-0.2,3.2,0.2,4.1,0.5c2.3,0.9,6.7,6.5,10.4,6.7
				c1.3,0.1,2.3,0,3.1-0.4l0.4-0.2l-0.2,0C118.7,109.6,115,103.9,111.7,103.1z"/>
		</g>
	</g>
</g>
</svg>
