<?xml version="1.0" encoding="utf-8"?>
<!-- Generator: Adobe Illustrator 25.2.1, SVG Export Plug-In . SVG Version: 6.00 Build 0)  -->
<svg version="1.1" id="Capa_1" xmlns="http://www.w3.org/2000/svg" xmlns:xlink="http://www.w3.org/1999/xlink" x="0px" y="0px"
	 viewBox="0 0 108 108" style="enable-background:new 0 0 108 108;" xml:space="preserve">
<style type="text/css">
	.st0{fill:#EC9EAA;}
	.st1{fill:#FFFFFF;}
</style>
<circle class="st0" cx="53.9" cy="53.3" r="51.6"/>
<g>
	<path class="st1" d="M23.1,84.3l-0.7-0.8l0,0l0,0c0,0,0.1,0,0.1,0c0,0,0,0,0.1-0.1c0,0,0.3-0.5,0.9-1.4l-1.4-1.7l-1.3,0.5
		c-0.1,0-0.2,0.1-0.2,0.1c-0.1,0-0.1,0.1-0.1,0.1l0,0l0,0l-0.4-0.5l0,0l0,0c0,0,0,0,0.1,0c0.1,0,0.2,0,0.4,0l4.9-1.8l0.4,0.5
		l-2.8,4.4c0,0.1-0.1,0.2-0.1,0.2c0,0.1,0,0.1,0,0.1C23.1,84.2,23.1,84.2,23.1,84.3L23.1,84.3L23.1,84.3z M23.7,81.8l1.7-2.7l-3,1.1
		L23.7,81.8z"/>
	<path class="st1" d="M28.8,89.5L28.8,89.5c-0.2-0.2-0.3-0.4-0.3-0.6c-0.1-0.3,0-0.8,0.2-1.3c0.1-0.3,0.2-0.6,0.2-0.9
		c0-0.2-0.2-0.5-0.6-0.8l-0.5-0.4c-0.9,1.1-1.3,1.6-1.4,1.6c0,0.1,0,0.1,0,0.2c0,0,0,0.1,0,0.1l0,0l0,0l-0.8-0.6l0,0l0,0
		c0,0,0.1,0,0.2,0c0.1,0,0.1-0.1,0.2-0.2l2.9-3.4c0.1-0.1,0.2-0.3,0.2-0.3c0,0,0-0.1,0-0.1l0,0l0,0l1.5,1.3c0.3,0.3,0.5,0.5,0.6,0.8
		c0.1,0.3,0.1,0.5,0.1,0.8c0,0.2-0.1,0.5-0.3,0.7c-0.2,0.2-0.5,0.4-0.8,0.5c-0.3,0.1-0.7,0-1.1-0.2c0.1,0.1,0.2,0.3,0.3,0.5
		c0.1,0.2,0,0.4-0.1,0.6c-0.2,0.3-0.3,0.6-0.3,0.9c-0.1,0.2-0.1,0.4-0.1,0.6c0,0.2,0,0.3,0,0.3L28.8,89.5z M28.6,85.8
		c0.3,0.3,0.7,0.4,1,0.4c0.4,0,0.7-0.2,0.9-0.5c0.2-0.3,0.3-0.6,0.3-0.9c-0.1-0.3-0.3-0.7-0.6-1l-0.7-0.6l-1.6,1.9L28.6,85.8z"/>
	<path class="st1" d="M33.3,92.4l-0.9-0.5l0,0l0,0c0.1,0,0.2-0.1,0.3-0.2l2.4-4.1l-1-0.6c-0.2-0.1-0.3-0.1-0.4-0.1
		c-0.1,0-0.2,0-0.2,0.1l0.3-0.4l3.4,2L37.2,89c0-0.1,0-0.1,0-0.2s-0.1-0.2-0.3-0.3l-1-0.6L33.4,92C33.3,92.1,33.3,92.3,33.3,92.4
		L33.3,92.4L33.3,92.4z"/>
	<path class="st1" d="M40.8,95.6c0.2,0.1,0.3,0.1,0.4,0.1c0.1,0,0.2-0.1,0.2-0.1l-0.1,0.2l-0.1,0.2l-0.1,0l-0.5-0.2l-2-0.7l-0.7-0.3
		l0-0.1c0,0,0,0,0,0c0,0,0,0,0.1,0c0,0,0,0,0.1,0c0,0,0-0.1,0.1-0.1c0,0,0-0.1,0.1-0.1l0,0l1.5-4.2c0-0.1,0-0.1,0-0.2
		c0,0,0-0.1,0-0.1c0,0,0-0.1,0-0.1c0,0,0,0,0,0c0,0,0,0,0,0l0,0l0.7,0.3l2,0.7l0.5,0.2l0.1,0l0,0.2l-0.1,0.3c0-0.1,0-0.1-0.1-0.2
		c-0.1-0.1-0.2-0.2-0.3-0.2l-2.1-0.8l-0.8,2.2l1.5,0.5c0.1,0,0.1,0,0.2,0s0.1,0,0.1,0c0,0,0.1,0,0.1,0c0,0,0,0,0,0c0,0,0,0,0,0
		l0.1,0l-0.1,0.2l-0.1,0.2l0,0l-0.1,0.2l0,0c0,0,0,0,0,0s0,0,0-0.1c0,0,0,0,0-0.1s-0.1,0-0.1-0.1c0,0-0.1,0-0.2-0.1l-1.5-0.5
		l-0.8,2.2L40.8,95.6z"/>
	<path class="st1" d="M53.2,93c0-0.1-0.1-0.1-0.2-0.2s-0.2-0.1-0.4-0.1l-2.2-0.1l-0.2,2.3l1.5,0.1c0.1,0,0.1,0,0.2,0
		c0,0,0.1,0,0.1,0c0,0,0.1,0,0.1,0c0,0,0,0,0,0c0,0,0,0,0,0l0.1,0l0,0.2l0,0.2v0l0,0.2l-0.1,0c0,0,0,0,0,0c0,0,0,0,0,0
		c0,0,0,0-0.1,0c0,0-0.1,0-0.1,0c0,0-0.1,0-0.2,0l-1.5-0.1l-0.1,2.1c0,0.1,0,0.1,0,0.2c0,0,0,0.1,0,0.1c0,0,0,0.1,0,0.1c0,0,0,0,0,0
		c0,0,0,0,0,0l0,0.1l-0.2,0l-0.6,0l-0.2,0l0-0.1c0,0,0,0,0,0c0,0,0,0,0,0s0,0,0.1-0.1c0,0,0-0.1,0-0.1c0,0,0-0.1,0-0.2l0.3-4.4l0,0
		c0-0.1,0-0.1,0-0.2c0,0,0-0.1,0-0.1c0,0,0-0.1,0-0.1c0,0,0,0,0,0c0,0,0,0,0,0l0-0.1l0.8,0.1l2.1,0.1l0.5,0l0.1,0l0,0.2L53.2,93z"/>
	<path class="st1" d="M59.6,97.5l-3.3,0.3l0-0.1l0,0c0.1,0,0.1-0.2,0.1-0.4L56,92.9c0-0.2-0.1-0.3-0.1-0.3c0,0-0.1,0-0.1,0l0,0
		l0-0.1l1-0.1l0,0.1l0,0c0,0-0.1,0-0.1,0.1c0,0.1,0,0.2,0,0.3l0.5,4.7l2.1-0.2c0.2,0,0.3-0.1,0.3-0.2l0,0l0.1,0L59.6,97.5z"/>
	<path class="st1" d="M65,96.3c-0.7,0.2-1.3,0.1-1.9-0.3c-0.6-0.4-1-0.9-1.2-1.6c-0.2-0.7-0.2-1.4,0.1-2c0.3-0.6,0.8-1,1.5-1.2
		c0.7-0.2,1.3-0.1,1.9,0.3s1,0.9,1.2,1.6c0.2,0.7,0.2,1.4-0.1,2C66.2,95.7,65.7,96.1,65,96.3z M64.9,96.1c0.5-0.1,0.9-0.5,1.1-1
		c0.2-0.5,0.2-1.2,0-1.8c-0.2-0.7-0.5-1.2-1-1.6s-0.9-0.4-1.4-0.3c-0.5,0.1-0.9,0.5-1.1,1c-0.2,0.5-0.2,1.2,0,1.9
		c0.2,0.7,0.5,1.2,0.9,1.6C63.9,96.2,64.4,96.3,64.9,96.1z"/>
	<path class="st1" d="M74.4,92.4L74.4,92.4c-0.3,0.1-0.5,0.1-0.7,0.1c-0.3-0.1-0.7-0.3-1.1-0.6c-0.3-0.3-0.5-0.4-0.7-0.5
		c-0.2-0.1-0.5,0-1,0.2l-0.6,0.3c0.6,1.2,0.9,1.9,1,1.9c0,0.1,0.1,0.1,0.1,0.1c0,0,0.1,0,0.1,0l0,0l0,0l-0.9,0.4l0,0l0,0
		c0,0,0.1-0.1,0.1-0.1c0-0.1,0-0.2-0.1-0.3l-2-4c-0.1-0.2-0.2-0.3-0.3-0.3c0,0-0.1,0-0.1,0l0,0l0-0.1l1.7-0.9c0.4-0.2,0.7-0.3,1-0.3
		c0.3,0,0.6,0.1,0.8,0.2c0.2,0.1,0.4,0.3,0.5,0.5c0.1,0.3,0.2,0.6,0.1,1c-0.1,0.3-0.3,0.7-0.7,1c0.2-0.1,0.4-0.1,0.6-0.1
		c0.2,0,0.4,0.1,0.5,0.3c0.3,0.3,0.5,0.5,0.7,0.7c0.2,0.2,0.4,0.3,0.5,0.3c0.1,0.1,0.2,0.1,0.3,0.1L74.4,92.4z M71,91.2
		c0.4-0.2,0.7-0.5,0.8-0.8c0.1-0.3,0.1-0.7-0.1-1c-0.2-0.3-0.4-0.5-0.8-0.6c-0.3-0.1-0.7,0-1.1,0.2L69,89.4l1.2,2.3L71,91.2z"/>
	<path class="st1" d="M81.1,87.7l-0.8,0.6l0,0l0,0c0,0,0-0.1,0-0.1c0,0,0,0-0.1-0.1c0,0-0.5-0.3-1.4-0.9L77,88.5l0.5,1.3
		c0,0.1,0.1,0.2,0.1,0.2c0,0.1,0.1,0.1,0.1,0.1l0,0l0,0l-0.5,0.4l0,0l0,0c0,0,0,0,0-0.1c0-0.1,0-0.2,0-0.4l-1.7-5l0.5-0.4l4.4,2.8
		c0.1,0,0.2,0.1,0.2,0.1c0.1,0,0.1,0,0.1,0C81,87.7,81,87.7,81.1,87.7L81.1,87.7L81.1,87.7z M78.6,87.1l-2.7-1.7l1,3L78.6,87.1z"/>
	<path class="st1" d="M85.7,82.8l-2.2,2.4l0,0l0,0c0-0.1,0-0.2-0.2-0.3l-3.3-3c-0.1-0.1-0.2-0.2-0.3-0.2c0,0-0.1,0-0.1,0l0,0l0,0
		l0.7-0.7l0,0l0,0c0,0,0,0.1,0,0.2s0.1,0.1,0.2,0.2l3.5,3.1l1.4-1.5c0.1-0.1,0.2-0.3,0.1-0.4l0,0l0,0L85.7,82.8z"/>
</g>
<g>
	<path class="st1" d="M25.5,35.5L25.5,35.5c-0.4,0.8-0.9,1.5-1.5,2c-0.6,0.5-1.2,0.8-1.8,0.8L22,37.5c0.9-0.1,1.5-0.3,2-0.7
		c0.5-0.4,0.9-0.8,1.2-1.5l0,0c0.2-0.4,0.3-0.7,0.4-1.1s0-0.7-0.1-1c-0.1-0.3-0.4-0.6-0.8-0.8c-0.4-0.2-0.7-0.2-1.1-0.1
		c-0.4,0.1-0.7,0.3-1.1,0.6c-0.4,0.3-0.8,0.6-1.2,1c-0.5,0.4-1,0.9-1.6,1.3l-0.1,0c-0.6,0.4-1.1,0.7-1.7,0.7c-0.3,0-0.7,0-1-0.2
		c-0.6-0.3-1-0.9-1.1-1.7c-0.1-0.8,0.1-1.6,0.5-2.7l0,0c0.4-0.8,0.9-1.4,1.5-1.8c0.6-0.4,1.1-0.6,1.7-0.6l0.2,0.8
		c-0.6,0-1.2,0.1-1.7,0.4c-0.5,0.3-1,0.8-1.3,1.4l0,0l0,0C15.8,33,16,34,17.1,34.6c0.3,0.2,0.7,0.2,1,0c0.4-0.1,0.8-0.4,1.2-0.7
		s0.9-0.7,1.3-1c0.9-0.8,1.7-1.3,2.1-1.6c0.8-0.4,1.5-0.4,2.2,0c0.5,0.3,0.9,0.8,1,1.5C26.1,33.6,26,34.4,25.5,35.5z"/>
	<path class="st1" d="M31.9,26.4l-0.2,0.2c-1.9,1.7-3.9,1.5-6.1-0.7l-3.3-3.3c-0.2-0.1-0.3-0.2-0.4-0.3c-0.1,0-0.2,0-0.2,0l-0.1,0
		l-0.1-0.1l1.3-1.3l0.1,0.1l0,0.1c0,0.1,0,0.1,0,0.2c0,0.1,0.1,0.3,0.2,0.4l3.1,3.1c0.5,0.5,1,0.9,1.4,1.3c0.4,0.4,0.9,0.6,1.4,0.7
		c1,0.2,1.8-0.1,2.5-0.7l0,0c0.5-0.5,0.9-1,1-1.5c0.1-0.4,0.1-0.7,0.1-1c-0.2-0.8-0.5-1.4-1.1-2l-4.1-4.1c-0.2-0.1-0.3-0.2-0.4-0.3
		c-0.1,0-0.2,0-0.2,0l-0.1,0l-0.1-0.1l0.8-0.8l0.1,0.1l0,0c-0.1,0.1-0.1,0.2,0,0.3c0,0.1,0.1,0.3,0.3,0.4l4.1,4.1
		c0.5,0.5,0.9,1.1,1,1.6s0.2,1.1,0.1,1.6c-0.1,0.5-0.3,1-0.6,1.4C32.2,26.1,32.1,26.3,31.9,26.4z"/>
	<path class="st1" d="M46,18.5l-1.8,0.7l0-0.1l0,0c0.1,0,0.1-0.1,0.1-0.2s0-0.3-0.1-0.5l-3-7.8l0.1,9.7l-0.4,0.2l-6.8-7.3l3,7.9
		c0.1,0.3,0.3,0.5,0.4,0.5c0.1,0,0.1,0,0.2,0l0,0l0,0.1l-0.7,0.3L36.9,22l0-0.1l0,0c0.1,0,0.1-0.1,0.2-0.3s0-0.3-0.1-0.5l-3.1-8
		c-0.1-0.3-0.3-0.4-0.4-0.5c-0.1,0-0.1,0-0.2,0l0,0l0-0.1l1.5-0.6l6.3,6.8L41,9.5L42.4,9l0,0.1l0,0c-0.1,0-0.1,0.1-0.1,0.3
		c0,0.1,0,0.3,0.1,0.5l3,7.9c0.1,0.2,0.2,0.4,0.3,0.5c0.1,0.1,0.2,0.1,0.2,0.1L46,18.5L46,18.5z"/>
	<path class="st1" d="M58,18.1l-2,0l0-0.1l0,0c0.1,0,0.1-0.1,0.2-0.2c0,0,0-0.1,0-0.2c0-0.1-0.4-1-1-2.9l-4.3,0.1L50,17.4
		c-0.1,0.2-0.1,0.4-0.1,0.5c0,0.1,0,0.2,0.1,0.3l0.1,0l0,0.1l-1.2,0l0-0.1l0.1,0c0,0,0.1,0,0.2-0.1c0.2-0.1,0.3-0.3,0.4-0.6L52.7,8
		l1.2,0l3.4,9.4c0.1,0.2,0.1,0.3,0.2,0.4c0.1,0.1,0.1,0.2,0.2,0.2s0.1,0.1,0.2,0.1l0.1,0L58,18.1z M55,14.3l-2.1-5.7L51,14.4
		L55,14.3z"/>
	<path class="st1" d="M66.4,24.2l-0.2-0.1c-0.3-0.1-0.6-0.4-0.9-0.8c-0.4-0.6-0.6-1.4-0.6-2.4c0-0.3,0-0.6,0-1.1
		c-0.1,0-0.3-0.1-0.4-0.1c-1.3-0.4-2.2-1.2-2.8-2.4c-0.5-1.2-0.6-2.5-0.2-3.8c0.4-1.4,1.2-2.4,2.3-3.1c1.1-0.7,2.3-0.8,3.6-0.4
		s2.2,1.2,2.8,2.4s0.6,2.5,0.2,3.8c-0.4,1.1-0.9,2-1.8,2.7c-0.8,0.7-1.8,1-2.8,1c0,0.2,0,0.4,0,0.6C65.6,22.5,65.8,23.7,66.4,24.2
		L66.4,24.2z M64.5,19.4c0.1,0,0.2,0.1,0.3,0.1c0-0.4,0-0.8-0.1-1.2c-0.1-0.4-0.4-0.8-0.8-1.2l0.2,0.1c0.2,0.1,0.3,0.2,0.5,0.4
		c0.2,0.2,0.4,0.4,0.6,0.7c0.2,0.3,0.3,0.7,0.4,1.2c0.8-0.1,1.5-0.4,2.1-1.1c0.6-0.6,1.1-1.5,1.4-2.5c0.4-1.4,0.4-2.5,0-3.6
		s-1-1.7-2-2c-0.9-0.3-1.9-0.1-2.8,0.5c-0.9,0.6-1.5,1.6-2,2.9c-0.4,1.3-0.4,2.5-0.1,3.5C62.8,18.4,63.5,19.1,64.5,19.4z"/>
	<path class="st1" d="M71.8,23.3c-0.2-0.1-0.3-0.3-0.3-0.5s0-0.4,0.1-0.6c0.1-0.2,0.3-0.3,0.5-0.3c0.2,0,0.4,0,0.6,0.1
		c0.2,0.1,0.3,0.3,0.3,0.5c0,0.2,0,0.4-0.1,0.6c-0.1,0.2-0.3,0.3-0.5,0.3C72.2,23.4,72,23.4,71.8,23.3z"/>
	<path class="st1" d="M76.3,26.7L75,25.3l0.1-0.1l0,0c0,0,0.1,0.1,0.2,0.1c0.2,0,0.4-0.1,0.6-0.3l6.2-5.7c0.3-0.3,0.4-0.5,0.3-0.7
		c0,0,0-0.1,0-0.1l0.1-0.1l2.6,2.9c0.5,0.6,0.9,1.1,1,1.7s0.1,1.1,0,1.5c-0.1,0.5-0.4,0.9-0.7,1.2c-0.4,0.3-0.8,0.5-1.2,0.7
		s-1,0.1-1.5-0.1s-1.1-0.6-1.6-1.1l-1.6-1.8L76.5,26c-0.2,0.2-0.3,0.4-0.3,0.6L76.3,26.7L76.3,26.7z M80.9,24.5
		c0.6,0.6,1.2,1,1.8,1.1c0.7,0.1,1.3-0.1,1.9-0.7c0.5-0.5,0.8-1.1,0.8-1.7c0-0.7-0.3-1.3-0.9-2l-1.2-1.3l-3.6,3.3L80.9,24.5z"/>
	<path class="st1" d="M84.6,38.5c0.2,0.3,0.3,0.5,0.5,0.6c0.2,0.1,0.3,0.1,0.5,0.1L85,39.4l-0.4,0.1l-0.1-0.2l-0.4-0.9l-1.7-3.6
		l-0.7-1.4l0.1,0c0,0,0,0.1,0.1,0.1c0,0,0.1,0,0.1,0.1c0,0,0.1,0,0.1,0s0.1,0,0.2,0c0.1,0,0.2-0.1,0.3-0.1l0.1,0l7.6-3.7
		c0.1-0.1,0.2-0.1,0.3-0.2s0.1-0.1,0.2-0.1c0,0,0.1-0.1,0.1-0.1c0,0,0-0.1,0-0.1s0-0.1,0-0.1l0.1,0l0.7,1.4l1.7,3.6l0.4,0.9l0.1,0.2
		l-0.3,0.2L93,35.6c0.1-0.1,0.1-0.2,0.2-0.4c0-0.2,0-0.5-0.2-0.8l-1.8-3.8l-4,1.9l1.3,2.7c0.1,0.1,0.1,0.2,0.2,0.3
		c0.1,0.1,0.1,0.1,0.2,0.2c0,0,0.1,0.1,0.1,0.1c0,0,0.1,0,0.1,0c0,0,0.1,0,0.1,0l0,0.1l-0.3,0.2l-0.3,0.2l0,0l-0.3,0.2l0-0.1
		c0,0,0.1,0,0.1-0.1c0,0,0-0.1,0.1-0.1s0-0.1,0-0.1c0-0.1,0-0.1,0-0.2c0-0.1-0.1-0.2-0.1-0.3l-1.3-2.7l-4.1,2L84.6,38.5z"/>
</g>
<g>
	<g>
		<g>
			<path class="st1" d="M53.9,54.5l-0.4-0.2c-0.3-0.2-8.4-5.6-8.7-13.2C44.7,35.6,49,28.1,52,25.6l0.3-0.3l0.3,0.2
				c3.2,2.3,8,8.3,8.6,14.7c0.6,6.7-6.7,13.6-7.1,13.9L53.9,54.5z M52.4,26.7c-2.7,2.6-6.6,9.5-6.4,14.2c0.2,6.2,6.2,11,7.8,12.1
				c1.4-1.4,6.9-7.3,6.4-12.7C59.7,34.6,55.4,29,52.4,26.7z"/>
		</g>
		<g>
			<path class="st1" d="M62,55.6c-4.2,0-8-1.2-8.3-1.3l-0.4-0.1l0-0.4c0-0.4,0.8-10,7.4-14c4.6-2.8,13.3-2.7,16.9-1.2l0.4,0.2l0,0.4
				c-0.4,3.9-3.4,11-8.7,14.7C67.2,55.1,64.5,55.6,62,55.6z M54.5,53.4c1.9,0.5,9.7,2.5,14.2-0.6c4.8-3.3,7.6-9.7,8.2-13.4
				c-3.6-1.2-11.5-1.1-15.6,1.3C55.9,43.9,54.7,51.4,54.5,53.4z"/>
		</g>
		<g>
			<path class="st1" d="M70.3,69.1c-3,0-6.2-0.5-9-1.9c-6-3-8-12.9-8-13.4l-0.1-0.4l0.4-0.2c0.4-0.2,9.2-4.2,15.8-0.3
				c4.6,2.7,8.8,10.4,9.3,14.2l0.1,0.4l-0.4,0.2C76.5,68.5,73.6,69.1,70.3,69.1z M54.5,54.1C55,56,57,63.8,61.9,66.2
				c5.2,2.6,12.2,2,15.7,0.6c-0.7-3.7-4.5-10.6-8.7-13C63.5,50.8,56.3,53.4,54.5,54.1z"/>
		</g>
		<g>
			<path class="st1" d="M53.9,82.3L53.5,82c-3.1-2.4-7.6-8.7-7.8-15.2c-0.3-6.7,7.5-13.2,7.8-13.5l0.3-0.3l0.4,0.3
				c0.3,0.2,8.1,6,7.9,13.7c-0.1,5.4-4.8,12.7-7.9,15L53.9,82.3z M53.9,54.5c-1.5,1.3-7.3,6.9-7.1,12.3c0.2,5.8,4.2,11.6,7,14.1
				c2.9-2.4,7.1-9.1,7.1-13.9C61.1,60.7,55.4,55.7,53.9,54.5z"/>
		</g>
		<g>
			<path class="st1" d="M37.6,69.1c-3.3,0-6.5-0.6-8.3-1.4l-0.4-0.2l0.1-0.4c0.6-3.9,4-10.8,9.5-14.2c5.7-3.5,15.2,0.1,15.6,0.3
				l0.4,0.2l-0.1,0.4c-0.1,0.4-1.3,10-8.1,13.6C44,68.6,40.8,69.1,37.6,69.1z M30.2,66.9c3.5,1.4,11.4,1.8,15.6-0.5
				c5.5-2.9,7.1-10.4,7.5-12.3c-1.9-0.6-9.6-3-14.2-0.2C34.1,56.9,30.9,63.2,30.2,66.9z"/>
		</g>
		<g>
			<path class="st1" d="M45.9,55.8c-2.5,0-5.3-0.5-7.7-2.1c-4.5-2.9-8.2-10.8-8.5-14.7l0-0.4l0.4-0.1c3.7-1.3,11.4-1.8,17,1.4
				c5.8,3.3,7.3,13.3,7.3,13.8l0.1,0.4l-0.4,0.2C53.8,54.4,50.2,55.8,45.9,55.8z M30.9,39.4c0.5,3.7,4,10.8,8,13.4
				c5.2,3.4,12.6,1.2,14.4,0.6c-0.3-2-2-9.8-6.7-12.5C41.5,38,34.5,38.3,30.9,39.4z"/>
		</g>
	</g>
	<g>
		<g>
			<path class="st1" d="M50.8,53c-0.1,0-0.2,0-0.3-0.1c-2.9-3-5.3-5.3-10.6-5.8c-0.2,0-0.4-0.2-0.4-0.5c0-0.2,0.2-0.4,0.5-0.4
				c5.6,0.5,8.2,3.1,11.1,6.1c0.2,0.2,0.2,0.5,0,0.6C51,53,50.9,53,50.8,53z"/>
		</g>
		<g>
			<path class="st1" d="M38.9,47.4c-0.4,0-0.7-0.1-0.9-0.1c-0.5-0.2-1-0.6-1.2-1c-0.2-0.5-0.1-0.9,0.2-1.3c0.2-0.2,0.6-0.4,1-0.4
				c0.6,0,1,0.2,1.4,0.5c0.6,0.5,0.9,0.9,0.8,1.4c0,0,0,0,0,0c0,0.1,0,0.1,0,0.2C40.1,47.3,39.5,47.4,38.9,47.4z M38.1,45.6
				c-0.2,0-0.3,0.1-0.3,0.1c0,0-0.1,0.2,0,0.3c0.1,0.2,0.3,0.4,0.6,0.5c0.3,0.1,1,0.1,1.2,0c0-0.1-0.1-0.3-0.5-0.6
				C38.7,45.6,38.4,45.6,38.1,45.6C38.1,45.6,38.1,45.6,38.1,45.6z"/>
		</g>
	</g>
	<g>
		<g>
			<path class="st1" d="M55.4,53c-0.1,0-0.2,0-0.3-0.1c-0.2-0.2-0.2-0.5,0-0.6l0.1-0.1c2.7-2.7,6.5-6.4,11.1-6.4c0,0,0,0,0,0
				c0.2,0,0.4,0.2,0.4,0.4c0,0.2-0.2,0.5-0.4,0.5c-4.3,0-7.7,3.4-10.5,6.2l-0.1,0.1C55.6,53,55.5,53,55.4,53z"/>
		</g>
		<g>
			<path class="st1" d="M67.4,46.9c-0.4,0-0.7-0.1-1-0.3c-0.4-0.3-0.6-0.7-0.6-1.1c0.1-0.3,0.3-0.6,0.7-0.9c0.5-0.3,1-0.4,1.4-0.4
				c0.8,0,1.3,0.3,1.5,0.7c0,0,0,0,0,0c0,0.1,0.1,0.1,0.1,0.2c0.2,0.9-1.2,1.6-1.6,1.7C67.8,46.8,67.6,46.9,67.4,46.9z M67.9,45
				c-0.3,0-0.6,0.1-0.8,0.3c-0.2,0.1-0.3,0.2-0.3,0.3c0,0.1,0.1,0.2,0.2,0.3c0.2,0.1,0.5,0.2,0.8,0.1c0.3-0.1,0.8-0.5,0.9-0.7
				C68.6,45.2,68.4,45.1,67.9,45C67.9,45,67.9,45,67.9,45z"/>
		</g>
	</g>
	<g>
		<g>
			<path class="st1" d="M54.1,68.3c-0.1,0-0.1,0-0.2,0c-0.2-0.1-0.3-0.4-0.2-0.6c1.7-4.2,0.7-8.8-0.4-12.3c-0.1-0.2,0.1-0.5,0.3-0.6
				c0.2-0.1,0.5,0.1,0.6,0.3c1.2,3.7,2.3,8.4,0.4,12.9C54.4,68.2,54.3,68.3,54.1,68.3z"/>
		</g>
		<g>
			<path class="st1" d="M53.5,71c-0.3,0-0.5-0.1-0.7-0.2c-0.3-0.2-0.4-0.6-0.4-1c0-0.6,0.1-1.1,0.4-1.4c0.4-0.6,0.9-0.9,1.4-0.9
				c0,0,0,0,0,0c0.1,0,0.1,0,0.2,0c0.9,0.3,0.8,1.9,0.7,2.3c-0.1,0.5-0.5,1-1,1.2C53.8,71,53.6,71,53.5,71z M54,68.3
				c-0.1,0-0.3,0.2-0.6,0.5c-0.2,0.3-0.2,0.7-0.2,0.9c0,0.3,0.1,0.3,0.1,0.4c0,0,0.2,0,0.3,0c0.2-0.1,0.4-0.3,0.5-0.6
				C54.2,69.2,54.2,68.5,54,68.3z"/>
		</g>
	</g>
</g>
</svg>
