<?xml version="1.0" encoding="utf-8"?>
<!-- Generator: Adobe Illustrator 25.2.1, SVG Export Plug-In . SVG Version: 6.00 Build 0)  -->
<svg version="1.1" id="Layer_1" xmlns="http://www.w3.org/2000/svg" xmlns:xlink="http://www.w3.org/1999/xlink" x="0px" y="0px"
	 viewBox="0 0 595.3 197.5" style="enable-background:new 0 0 595.3 197.5;" xml:space="preserve">
<style type="text/css">
	.st0{fill:#EF4065;}
	.st1{fill:#F05B71;}
	.st2{fill:#F27581;stroke:#F27581;stroke-width:20;stroke-miterlimit:10;}
	.st3{fill:#F48B91;}
	.st4{fill:#FFFFFF;}
</style>
<symbol  id="New_Symbol_3" viewBox="-273 -314.5 546.1 629">
	<g>
		<polygon class="st0" points="-253.8,149 -193.8,167 -112.8,167 -82.8,167 -48.8,260 0.2,299 65.2,238 96.2,149 176.7,175.1 
			260.2,149 251.2,99 206.2,16 255.2,-104 260.2,-149 202.2,-169 86.2,-156 38.2,-274 0.2,-305 -55.8,-255 -87.8,-171 -207.8,-169 
			-258.8,-149 -249.8,-86 -193.8,0 -248.8,80 		"/>
		<g>
			<g>
				<path class="st0" d="M-265.1,156.3l-5.1-3.1l-0.2-5.9c-0.9-32.5,7.3-63.9,23-91c1.8,3.8,4.3,7.1,7.5,10.1
					c2.5,2.7,5.3,4.9,8.5,6.6c-10.7,20.6-16.7,43.7-16.9,67.6c37.1,20.9,80.9,24.8,120.6,11.8c-0.5,7.5-0.1,15.1,1.6,22.5
					C-172.5,188.5-222.9,182.3-265.1,156.3z"/>
				<path class="st0" d="M-248.4-140.6c0.5,44.9,20.9,86.7,55.2,114.6c-3.7,1.5-7.4,3.1-11.1,4.9c-3.4,1.7-6.4,4-9.1,6.8
					c-37.2-33.4-58.4-81.7-57-132.9l0.2-5.9l5.1-3.1c27.7-17,59-25.6,90.2-25.6c-4.4,6.4-7.2,14.1-7.9,22.2
					C-205.5-158.5-227.9-152.1-248.4-140.6z"/>
				<path class="st0" d="M51.9-238C39.3-258.8,21.6-276.6,0-289.4c-39,23.1-65.1,62.3-71.9,106.4c-3.2-0.9-6.4-1.3-9.6-1.2
					c-3.4-2.6-7.3-4.7-11.4-6.3c9.1-51.1,41-96,87.7-121.3l5.2-2.8l5.2,2.8c30.1,16.3,54,40.7,69.7,69.7c-1.5-0.2-3-0.3-4.5-0.3
					C63.7-242.3,57.4-240.7,51.9-238z"/>
				<path class="st0" d="M5.2,311.7L0,314.5l-5.2-2.8c-27.6-14.9-50-36.7-65.6-62.5c1.2-0.2,2.4-0.5,3.5-0.8
					c6.2-1.7,11.7-4.8,16.4-8.9c12.5,20.2,29.9,37.4,51,49.9c37.2-22,62.7-58.7,70.9-100.4c4.8,1.6,9.9,2.5,14.9,2.7
					c2.3,0.1,4.7-0.1,7.1-0.5C83.5,242,51.7,286.6,5.2,311.7z"/>
				<path class="st0" d="M248.4,140.6c-0.5-42.7-19-82.6-50.2-110.4c6.9-3.1,12.8-8,17.2-14.1c35.9,33.3,56.4,80.8,55,131.1
					l-0.2,5.9l-5.1,3.1c-28.6,17.6-60.9,26.1-93.2,25.6c5.2-6.2,8.8-13.8,10.3-22.2C205.1,158.6,227.8,152.2,248.4,140.6z"/>
				<path class="st0" d="M240.6-72.5c-2-2-4.3-3.8-6.7-5.4c9.2-19.3,14.3-40.7,14.5-62.7c-22.9-12.9-48.2-19.3-73.7-19.3
					c-16.9,0-33.9,2.9-50.1,8.6c0-1-0.1-1.9-0.2-2.9c0.2-1.8,0.3-3.6,0.2-5.5v-0.8c0-4.6-0.7-9.1-2.1-13.3c17-5.4,34.6-8.2,52.2-8.2
					c31.3,0,62.6,8.6,90.4,25.6l5.1,3.1l0.2,5.9c0.9,31.1-6.6,61.2-21,87.5C247.1-64.6,244-69.1,240.6-72.5z"/>
			</g>
		</g>
		<path class="st1" d="M271.3-40.8C254.7,9.1,214.1,46.7,163.7,59.6c30.3,42.3,37.3,97.2,17.9,146.1l-2,5l-5.3,1.1
			c-53,10.9-107.4-6.8-143.8-46.2c-19.8,51.8-66,88.9-121.1,97.1l-5.3,0.8l-3.6-4c-37-41.6-48.5-99.7-30.4-152.2
			c-53.2,6.8-106.3-14.6-139.8-57L-273,46l1.7-5.1c16.6-49.9,57.3-87.5,107.7-100.4c-30.3-42.3-37.3-97.2-17.9-146.1l2-5l5.3-1.1
			c10.4-2.1,20.8-3.2,31.1-3.2c42.5,0,83.4,17.6,112.7,49.3c19.8-51.8,66-88.9,121.1-97.1l5.3-0.8l3.6,4
			c37,41.6,48.5,99.7,30.4,152.2c6.5-0.8,13-1.2,19.5-1.2c46.4,0,90.9,21.1,120.3,58.3L273-46L271.3-40.8z"/>
		<g>
			<ellipse class="st2" cx="0" cy="92.8" rx="49.1" ry="82.2"/>
			<path class="st2" d="M13.1,0c26.6,14.1,59.4,15.1,87.7,0c1,0.5,1.9,1,2.9,1.6c30.8,17.8,47.6,50.4,46.7,83.6
				c-28.3,17.4-65,19.2-95.7,1.4c-2.1-1.2-4.1-2.5-6.1-3.8C45.5,55,30.4,30.9,8.5,15.8C8,11.6,7.8,7.3,7.9,3
				C9.6,1.9,11.4,0.9,13.1,0z"/>
			<ellipse transform="matrix(0.5 -0.866 0.866 0.5 77.7379 46.4939)" class="st2" cx="79.1" cy="-44.1" rx="49.1" ry="82.2"/>
			<path class="st2" d="M48.5-82.7C25.4-66.9,11.4-42.1,8.5-15.8C5.7-14,2.9-12.2,0-10.6c-2.9-1.6-5.7-3.3-8.5-5.2
				c-2.9-26.3-16.9-51.1-40.1-66.9c-0.4-3.3-0.5-6.7-0.5-10.1c0-35.5,19.8-66.4,49.1-82.2c29.2,15.8,49.1,46.7,49.1,82.2
				C49.1-89.4,48.9-86.1,48.5-82.7z"/>
			<path class="st2" d="M-103.7,1.6c0.9-0.5,1.9-1.1,2.9-1.6c28.3,15.1,61.1,14.1,87.7,0c1.8,0.9,3.5,1.9,5.2,3
				c0.1,4.3-0.1,8.6-0.5,12.9c-21.9,15-37.1,39.1-40.1,66.9c-2,1.3-4,2.6-6.1,3.8c-30.8,17.8-67.5,16-95.7-1.4
				C-151.3,52-134.4,19.4-103.7,1.6z"/>
			<ellipse transform="matrix(0.866 -0.5 0.5 0.866 11.4361 -45.4719)" class="st2" cx="-79.1" cy="-44.1" rx="82.2" ry="49.1"/>
			<circle class="st3" cx="0" cy="1.6" r="46.8"/>
		</g>
	</g>
</symbol>
<symbol  id="New_Symbol_5" viewBox="-396.5 -126.1 792.9 252.2">
	
		<use xlink:href="#New_Symbol_3"  width="546.1" height="629" x="-273" y="-314.5" transform="matrix(0.4031 0 0 0.401 -286.4171 0)" style="overflow:visible;"/>
	<g>
		<path class="st4" d="M-81.1,7.7l1.7-21.7l-3.1-0.3c-0.3,3.2-1.8,6.8-4.6,10.9c-1.8,2.6-4.6,4.8-8.3,6.6c-3.8,1.8-8.3,2.6-13.7,2.6
			c-9.6,0-14.4-3.4-14.4-10.1c0-3.8,1.2-6.7,3.6-8.5c2.2-1.6,5-3.4,8.6-5.2l23.1-10.8c9.6-5.1,14.5-11.8,14.5-20
			c0-16.7-12.3-25.1-36.9-25.1c-3.7,0-7.3,0.5-10.7,1.5c-4.1,1.2-7.8,2.9-11.2,5c-1.5,0.9-2.7,1.4-3.8,1.4c-2.4,0-3.8-2.3-4.3-6.8
			l-3.1,0.3l2.6,23.1l3.1-0.3c1-7.5,5.6-13.4,13.7-17.9c3.7-2.1,8.3-3.1,13.7-3.1c10.4,0,15.7,3.6,15.7,10.7c0,5.5-3.1,9.9-9.2,13.1
			l-21.7,9.8c-5.4,2.4-9.4,5.5-12.2,9.1c-2.6,3.5-4,7.5-4,12c0,8,3.2,14.1,9.5,18.5c6.3,4.3,14.1,6.5,23.6,6.5c5,0,9.3-0.7,12.7-2
			c3.4-1.3,6.3-2,8.7-2c2.3,0,3.5,0.8,3.8,2.4L-81.1,7.7z"/>
		<path class="st4" d="M34.6-69.3v-3.1H3.9c-0.9,0-2,0.7-3.2,2c-1.2,1.3-1.9,2-2.1,2c-5.3-3.6-10.7-5.4-16.2-5.4
			c-26.7,0-40,9.7-40,29.1v38.4c0,7.2-4.1,10.8-12.3,10.8v3.1h30.8c4.1,0,6.2-4.6,6.2-13.9v-47.6c0-11.2,5.1-16.8,15.4-16.8
			c5.3,0,10.5,1.9,15.6,5.7c-0.1,1.8-0.2,4-0.2,6.5V5.8C8.5,5.8,15.7,6.9,19.3,9l3.1,0v-67.5C22.3-65.7,26.4-69.3,34.6-69.3z"/>
		<path class="st4" d="M54.6-6.4c0,7.2-4.1,10.8-12.3,10.8v3.1h30.8c0.9,0,2-0.7,3.1-2.1c1.2-1.4,1.9-2.1,2.1-2.1
			C83.6,7.1,89,8.9,94.6,8.9c15.9,0,27-3.4,33.3-10.3c5.7,6.8,13.1,10.3,22,10.3c26.7,0,40-9.7,40-29.1v-38.4
			c0-7.2,4.1-10.8,12.3-10.8v-3.1h-47.9v3.1c7.3,0,11,3.6,11,10.8v36.9c0,18.3-5.1,27.5-15.4,27.5c-8,0-14.7-3.2-20.1-9.6
			c3.1-4.2,4.7-10.2,4.7-17.9v-36.8c0-7.2,3.7-10.8,11-10.8v-3.1H99v3.1c7.3,0,11,3.6,11,10.8v36.9c0,18.3-5.1,27.5-15.4,27.5
			c-5.3,0-10.5-1.9-15.6-5.7c0.1-1.3,0.2-3.4,0.2-6.5v-52.2c0-7.2,3.7-10.8,11-10.8v-3.1H42.3v3.1c8.2,0,12.3,3.6,12.3,10.8V-6.4z"
			/>
		<path class="st4" d="M222.4-1.5c2.9,4,7.3,6.9,13.2,8.5c4.5,1.3,9,1.9,13.7,1.9c30,0,44.9-13.6,44.9-40.8v-26.7
			c0-7.2,4.1-10.8,12.3-10.8v-3.1h-30.8c-1,0-2.1,0.9-3.2,2.6c-1.1,1.7-1.9,2.4-2.3,2.2c-5.2-4.1-11.5-6.2-19.1-6.2
			c-27.4,0-41.1,7.8-41.1,23.3c0,18,17.6,27,52.7,27h6.9v7.1c0,14.8-6.8,22.2-20.3,22.2c-3.7,0-7.3-0.4-10.9-1.2
			c-2.3-0.5-3.5-1.4-3.5-2.6c0-0.8,0.5-1.8,1.6-3c1.8-1.8,2.8-4,2.8-6.7c0-2.6-0.9-4.8-2.8-6.7c-1.8-1.8-4.1-2.8-6.7-2.8
			s-4.8,0.9-6.7,2.8c-1.8,1.8-2.8,4.1-2.8,6.7C220.4-5.4,221-3.4,222.4-1.5z M260.1-26.6c-17,0-25.5-8-25.5-23.9
			c0-13.5,5.5-20.2,16.5-20.2c7.3,0,13.5,2.2,18.8,6.5c-0.2,6.4-0.3,13-0.3,20v17.6H260.1z"/>
		<path class="st4" d="M321.4-63.3c-7.4,7.1-11.1,17.3-11.1,30.8c0,13.4,3.7,23.6,11.2,30.8c7.5,7.1,18.1,10.6,31.9,10.6
			c13.7,0,24.4-3.5,31.9-10.6c7.5-7.2,11.2-17.4,11.2-30.8c0-13.5-3.7-23.7-11.1-30.8c-7.5-7.1-18.1-10.6-32-10.6
			c-12.7,0-19-1.9-19-5.7c0-1.5,1.7-2.2,5.2-2.2l34.6,0c4.4,0,6.6,2.1,6.6,6.3h2.5c0.1-0.7,0.2-1.5,0.2-2.3c0-8.8-5-13.2-15.1-13.2
			h-41.7c0,10.1,3.7,16.4,11.2,18.9C331.2-70.3,325.8-67.4,321.4-63.3z M368.5-62.6c2.3,5.5,3.4,15.6,3.4,30.1
			c0,14.6-1.1,24.6-3.4,30.1c-2.2,5.4-7.3,8.1-15.1,8.1c-8.8,0-14.2-3.4-16.2-10.2c-1.5-5.4-2.3-14.8-2.3-28.1s0.8-22.7,2.3-28.1
			c1.9-6.8,7.3-10.2,16.2-10.2C361.2-70.7,366.2-68,368.5-62.6z"/>
	</g>
	<g>
		<path class="st4" d="M-130.3-89.5c-0.1-0.7-0.1-1.3-0.1-1.9c0-0.6,0-1.1,0-1.4c0-0.4,0-0.8,0-1.2c0-0.4,0-0.7,0.1-1h-0.6
			c-0.1,1.2-0.3,2.1-0.5,2.8c-0.2,0.7-0.6,1.2-1.1,1.5c-0.5,0.3-1.3,0.5-2.4,0.5h-1.6c-0.6,0-1,0-1.3-0.1c-0.3-0.1-0.5-0.3-0.6-0.6
			c-0.1-0.3-0.2-0.8-0.2-1.4V-105c0-0.6,0.1-1.1,0.2-1.4c0.1-0.3,0.4-0.5,0.8-0.6c0.4-0.1,0.9-0.2,1.6-0.2v-0.5
			c-0.4,0-1,0.1-1.7,0.1c-0.7,0-1.4,0-2.1,0c-0.7,0-1.3,0-1.9,0c-0.6,0-1.1,0-1.4-0.1v0.5c0.6,0,1,0.1,1.3,0.2
			c0.3,0.1,0.5,0.3,0.6,0.6c0.1,0.3,0.2,0.8,0.2,1.4v12.8c0,0.6-0.1,1.1-0.2,1.4c-0.1,0.3-0.3,0.5-0.6,0.6c-0.3,0.1-0.7,0.2-1.3,0.2
			v0.5c0.8,0,1.7,0,2.7-0.1c1,0,1.9,0,2.7,0c0.8,0,1.5,0,2,0c0.8,0,1.7,0,2.7,0C-132-89.6-131.1-89.6-130.3-89.5z M-134.3-98.6v-0.5
			h-5.1v0.5H-134.3z M-133.8-95.2c-0.1-1-0.1-1.7-0.1-2.2c0-0.5,0-1,0-1.4c0-0.4,0-0.9,0-1.4c0-0.5,0.1-1.3,0.1-2.2h-0.6
			c-0.1,0.5-0.2,1.1-0.2,1.6c-0.1,0.5-0.3,1-0.6,1.3c-0.3,0.3-0.9,0.5-1.6,0.5v0.5c0.8,0,1.3,0.2,1.6,0.6c0.3,0.4,0.5,0.9,0.6,1.4
			c0.1,0.5,0.2,1,0.2,1.4H-133.8z"/>
		<path class="st4" d="M-101.3-89.5V-90c-0.6,0-1-0.1-1.3-0.2s-0.5-0.3-0.6-0.6c-0.1-0.3-0.2-0.8-0.2-1.4V-105
			c0-0.6,0.1-1.1,0.2-1.4c0.1-0.3,0.3-0.5,0.6-0.6c0.3-0.1,0.7-0.1,1.3-0.1h1.9c1.1,0,1.9,0.2,2.5,0.5c0.6,0.3,1,0.8,1.2,1.5
			c0.2,0.7,0.4,1.6,0.6,2.8h0.6c-0.1-0.5-0.1-1.2-0.1-2.1c0-0.3,0-0.8,0-1.4c0-0.6,0.1-1.2,0.1-1.9c-0.9,0-1.9,0.1-3,0.1
			c-1.1,0-2.1,0-2.9,0c-0.5,0-1.2,0-2,0c-0.8,0-1.8,0-2.7,0c-1,0-1.9,0-2.7-0.1v0.5c0.6,0,1,0.1,1.3,0.2c0.3,0.1,0.5,0.3,0.6,0.6
			c0.1,0.3,0.2,0.8,0.2,1.4v12.8c0,0.6-0.1,1.1-0.2,1.4c-0.1,0.3-0.3,0.5-0.6,0.6c-0.3,0.1-0.7,0.2-1.3,0.2v0.5c0.4,0,0.8,0,1.4-0.1
			c0.6,0,1.2,0,1.9,0c0.6,0,1.2,0,1.8,0C-102.2-89.6-101.7-89.5-101.3-89.5z"/>
		<path class="st4" d="M-63.7-89.2c1.6,0,3.1-0.4,4.3-1.1c1.2-0.7,2.2-1.8,2.9-3.2c0.7-1.4,1-3.1,1-5c0-1.9-0.3-3.6-1-5
			c-0.7-1.4-1.7-2.6-2.9-3.4c-1.2-0.8-2.7-1.2-4.2-1.2c-1.6,0-3.1,0.4-4.3,1.1c-1.2,0.7-2.2,1.8-2.9,3.2c-0.7,1.4-1,3.1-1,5
			c0,1.9,0.4,3.6,1.1,5c0.7,1.4,1.7,2.6,2.9,3.4S-65.3-89.2-63.7-89.2z M-63.8-89.6c-1.1,0-2.1-0.4-2.9-1.2
			c-0.8-0.8-1.5-1.8-1.9-3.2c-0.5-1.4-0.7-2.9-0.7-4.7c0-1.8,0.3-3.4,0.8-4.7c0.5-1.3,1.2-2.4,2.1-3.1c0.9-0.7,1.8-1.1,2.9-1.1
			c1.1,0,2.1,0.4,2.9,1.2c0.8,0.8,1.5,1.8,1.9,3.2c0.5,1.4,0.7,2.9,0.7,4.7c0,1.8-0.3,3.4-0.8,4.8c-0.5,1.3-1.2,2.4-2,3.1
			C-61.8-90-62.7-89.6-63.8-89.6z"/>
		<path class="st4" d="M-32.7-89.5c0.4,0,0.8,0,1.4-0.1c0.6,0,1.2,0,1.7,0c0.8,0,1.6,0,2.3,0c0.7,0,1.3,0,1.6,0
			c2.1,0,3.6-0.4,4.7-1.3c1-0.9,1.5-1.9,1.5-3.2c0-0.5-0.1-1.1-0.3-1.6c-0.2-0.6-0.6-1.1-1.1-1.6c-0.5-0.5-1.2-0.9-2.1-1.3
			c-0.9-0.3-2-0.5-3.3-0.5h-2.5v0.5h2.2c1.2,0,2.1,0.2,2.8,0.6c0.6,0.4,1.1,0.9,1.3,1.5c0.2,0.6,0.3,1.4,0.3,2.1
			c0,1.4-0.3,2.4-1,3.2c-0.6,0.7-1.7,1.1-3.3,1.1c-0.8,0-1.3-0.1-1.5-0.4c-0.2-0.3-0.4-0.9-0.4-1.8V-105c0-0.6,0.1-1.1,0.2-1.4
			c0.1-0.3,0.3-0.5,0.6-0.6c0.3-0.1,0.7-0.2,1.3-0.2v-0.5c-0.4,0-0.9,0.1-1.5,0.1c-0.6,0-1.2,0-1.8,0c-0.7,0-1.3,0-1.9,0
			c-0.6,0-1.1,0-1.4-0.1v0.5c0.6,0,1,0.1,1.3,0.2c0.3,0.1,0.5,0.3,0.6,0.6c0.1,0.3,0.2,0.8,0.2,1.4v12.8c0,0.6-0.1,1.1-0.2,1.4
			c-0.1,0.3-0.3,0.5-0.6,0.6c-0.3,0.1-0.7,0.2-1.3,0.2V-89.5z M-28.6-98.7c0.9,0,1.7-0.1,2.2-0.1c0.5,0,1-0.1,1.3-0.1
			c0.3,0,0.7-0.1,1-0.1c1.1-0.2,2-0.5,2.5-1c0.5-0.5,0.9-1.3,1.1-2.4l0.6-2.6c0.2-0.8,0.3-1.3,0.5-1.6s0.5-0.5,0.8-0.5
			c0.3,0,0.5,0.1,0.7,0.3c0.2,0.2,0.4,0.4,0.6,0.7l0.4-0.3c-0.4-0.5-0.7-0.9-1.1-1.2c-0.4-0.3-0.9-0.4-1.6-0.4
			c-0.6,0-1.2,0.2-1.7,0.6c-0.5,0.4-0.8,1.1-1.1,2.2l-0.6,2.6c-0.2,0.7-0.3,1.4-0.5,1.9c-0.2,0.5-0.5,1-0.8,1.3
			c-0.4,0.3-0.9,0.5-1.6,0.5h-2.8L-28.6-98.7z"/>
		<path class="st4" d="M11.1-89.5V-90c-0.6,0-1-0.1-1.3-0.2s-0.5-0.3-0.6-0.6C9.1-91.1,9-91.6,9-92.2V-105c0-0.6,0.1-1.1,0.2-1.4
			c0.1-0.3,0.3-0.5,0.6-0.6c0.3-0.1,0.7-0.2,1.3-0.2v-0.5c-0.4,0-0.9,0.1-1.5,0.1c-0.6,0-1.2,0-1.8,0c-0.7,0-1.3,0-1.9,0
			c-0.6,0-1.1,0-1.4-0.1v0.5c0.6,0,1,0.1,1.3,0.2c0.3,0.1,0.5,0.3,0.6,0.6c0.1,0.3,0.2,0.8,0.2,1.4v12.8c0,0.6-0.1,1.1-0.2,1.4
			c-0.1,0.3-0.3,0.5-0.6,0.6c-0.3,0.1-0.7,0.2-1.3,0.2v0.5c0.4,0,0.8,0,1.4-0.1c0.6,0,1.2,0,1.9,0c0.6,0,1.2,0,1.8,0
			C10.2-89.6,10.7-89.5,11.1-89.5z"/>
		<path class="st4" d="M39.4-89.2c0.9,0,1.5-0.1,2-0.3c0.4-0.2,0.8-0.4,1.2-0.7c0.2-0.1,0.4-0.2,0.5-0.3c0.1-0.1,0.3-0.1,0.4-0.1
			c0.3,0,0.5,0.4,0.6,1.1h0.6c0-0.3,0-0.6-0.1-1c0-0.4,0-0.9-0.1-1.6c0-0.7,0-1.5,0-2.6h-0.6c-0.1,0.8-0.2,1.6-0.5,2.4
			c-0.3,0.8-0.8,1.4-1.4,1.9c-0.6,0.5-1.4,0.7-2.3,0.7c-0.9,0-1.7-0.3-2.3-0.8c-0.6-0.5-0.9-1.3-0.9-2.2c0-0.8,0.2-1.4,0.6-1.9
			s0.9-1,1.6-1.4c0.7-0.4,1.4-0.9,2.1-1.4c0.9-0.5,1.7-1.1,2.4-1.6c0.7-0.5,1.2-1.1,1.6-1.8c0.4-0.7,0.6-1.4,0.6-2.4
			c0-1.1-0.2-2-0.7-2.7c-0.5-0.7-1.2-1.3-2-1.6c-0.8-0.4-1.7-0.5-2.7-0.5c-0.9,0-1.6,0.1-2.2,0.3s-1,0.4-1.4,0.6
			c-0.4,0.2-0.7,0.4-0.9,0.4c-0.3,0-0.5-0.4-0.6-1.1h-0.6c0,0.4,0.1,0.8,0.1,1.3c0,0.5,0,1.1,0,1.9c0,0.8,0,1.8,0,3h0.6
			c0.1-1,0.3-2,0.6-2.9c0.3-0.9,0.8-1.6,1.5-2.1c0.7-0.5,1.5-0.8,2.6-0.8c0.8,0,1.6,0.3,2.3,0.8c0.7,0.5,1,1.4,1,2.6
			c0,1-0.4,1.9-1.1,2.6c-0.7,0.7-1.7,1.4-2.9,2.1c-0.8,0.5-1.6,1-2.3,1.5c-0.7,0.5-1.3,1.1-1.7,1.8c-0.4,0.7-0.6,1.5-0.6,2.5
			c0,1,0.2,1.8,0.7,2.5c0.5,0.7,1.1,1.1,1.8,1.5C37.8-89.4,38.5-89.2,39.4-89.2z"/>
		<path class="st4" d="M82.5-89.5c-0.1-0.7-0.1-1.3-0.1-1.9c0-0.6,0-1.1,0-1.4c0-0.4,0-0.8,0-1.2c0-0.4,0-0.7,0.1-1h-0.6
			c-0.1,1.2-0.3,2.1-0.5,2.8c-0.2,0.7-0.6,1.2-1.1,1.5c-0.5,0.3-1.3,0.5-2.4,0.5h-1.4v-14.6c0-0.7,0.1-1.2,0.2-1.5
			c0.1-0.3,0.4-0.6,0.8-0.7c0.4-0.1,0.9-0.2,1.6-0.2v-0.5c-0.4,0-1,0.1-1.7,0.1c-0.7,0-1.4,0-2.1,0c-0.8,0-1.5,0-2.2,0
			c-0.7,0-1.2,0-1.6-0.1v0.5c0.7,0,1.3,0.1,1.6,0.2c0.4,0.1,0.6,0.4,0.8,0.7c0.1,0.3,0.2,0.9,0.2,1.5v14.6h-1.4
			c-1.1,0-1.9-0.2-2.4-0.5c-0.5-0.3-0.9-0.8-1.1-1.5c-0.2-0.7-0.4-1.6-0.5-2.8h-0.6c0,0.3,0.1,0.6,0.1,1c0,0.4,0,0.7,0,1.2
			c0,0.3,0,0.8,0,1.4c0,0.6-0.1,1.2-0.1,1.9c0.7,0,1.5,0,2.4-0.1c0.8,0,1.7,0,2.6,0c0.9,0,1.6,0,2.3,0c0.7,0,1.5,0,2.3,0
			c0.8,0,1.7,0,2.6,0C81-89.6,81.8-89.5,82.5-89.5z"/>
		<path class="st4" d="M117.8-89.5c-0.1-0.6-0.1-1.2-0.1-1.8c0-0.6,0-1,0-1.3c0-0.3,0-0.6,0-0.9c0-0.3,0-0.5,0.1-0.7h-0.6
			c-0.1,1-0.2,1.8-0.4,2.4c-0.2,0.6-0.5,1-1,1.3c-0.5,0.2-1.1,0.4-2,0.4h-2.1c-0.6,0-1,0-1.3-0.1c-0.3-0.1-0.5-0.3-0.6-0.6
			c-0.1-0.3-0.2-0.8-0.2-1.4V-105c0-0.6,0.1-1.1,0.2-1.4c0.1-0.3,0.3-0.5,0.6-0.6c0.3-0.1,0.7-0.1,1.3-0.1h1.9
			c1.1,0,1.9,0.1,2.5,0.4c0.6,0.3,1,0.8,1.2,1.4c0.2,0.7,0.4,1.6,0.6,2.7h0.6c-0.1-0.5-0.1-1.1-0.1-1.9c0-0.3,0-0.8,0-1.4
			c0-0.6,0.1-1.2,0.1-1.9c-0.9,0-1.9,0.1-3,0.1c-1.1,0-2.1,0-2.9,0c-0.5,0-1.2,0-2,0c-0.8,0-1.8,0-2.7,0c-1,0-1.9,0-2.7-0.1v0.5
			c0.6,0,1,0.1,1.3,0.2c0.3,0.1,0.5,0.3,0.6,0.6c0.1,0.3,0.2,0.8,0.2,1.4v12.8c0,0.6-0.1,1.1-0.2,1.4c-0.1,0.3-0.3,0.5-0.6,0.6
			c-0.3,0.1-0.7,0.2-1.3,0.2v0.5c0.8,0,1.7,0,2.7-0.1c1,0,1.9,0,2.7,0c0.8,0,1.5,0,2,0c0.8,0,1.7,0,2.7,0
			C116.1-89.6,117-89.6,117.8-89.5z M113.4-98.3v-0.5h-4.7v0.5H113.4z M114.1-94.9c-0.1-1-0.1-1.7-0.1-2.2c0-0.5,0-1,0-1.4
			c0-0.4,0-0.9,0-1.4c0-0.5,0.1-1.3,0.1-2.2h-0.6c-0.1,0.5-0.2,1.1-0.2,1.6c-0.1,0.5-0.3,1-0.6,1.3c-0.3,0.3-0.9,0.5-1.6,0.5v0.5
			c0.8,0,1.3,0.2,1.6,0.6c0.3,0.4,0.5,0.9,0.6,1.4c0.1,0.5,0.2,1,0.2,1.4H114.1z"/>
		<path class="st4" d="M141.2-89.5c0.4,0,0.8,0,1.4-0.1c0.6,0,1.2,0,1.7,0c0.8,0,1.6,0,2.3,0c0.7,0,1.3,0,1.6,0
			c2.1,0,3.6-0.4,4.7-1.3c1-0.9,1.5-1.9,1.5-3.2c0-0.5-0.1-1.1-0.3-1.6c-0.2-0.6-0.6-1.1-1.1-1.6c-0.5-0.5-1.2-0.9-2.1-1.3
			c-0.9-0.3-2-0.5-3.3-0.5h-2.5v0.5h2.2c1.2,0,2.1,0.2,2.8,0.6c0.6,0.4,1.1,0.9,1.3,1.5c0.2,0.6,0.3,1.4,0.3,2.1
			c0,1.4-0.3,2.4-1,3.2c-0.6,0.7-1.7,1.1-3.3,1.1c-0.8,0-1.3-0.1-1.5-0.4c-0.2-0.3-0.4-0.9-0.4-1.8V-105c0-0.6,0.1-1.1,0.2-1.4
			c0.1-0.3,0.3-0.5,0.6-0.6c0.3-0.1,0.7-0.2,1.3-0.2v-0.5c-0.4,0-0.9,0.1-1.5,0.1c-0.6,0-1.2,0-1.8,0c-0.7,0-1.3,0-1.9,0
			c-0.6,0-1.1,0-1.4-0.1v0.5c0.6,0,1,0.1,1.3,0.2c0.3,0.1,0.5,0.3,0.6,0.6c0.1,0.3,0.2,0.8,0.2,1.4v12.8c0,0.6-0.1,1.1-0.2,1.4
			c-0.1,0.3-0.3,0.5-0.6,0.6c-0.3,0.1-0.7,0.2-1.3,0.2V-89.5z M145.3-98.7c0.9,0,1.7-0.1,2.2-0.1c0.5,0,1-0.1,1.3-0.1
			c0.3,0,0.7-0.1,1-0.1c1.1-0.2,2-0.5,2.5-1c0.5-0.5,0.9-1.3,1.1-2.4l0.6-2.6c0.2-0.8,0.3-1.3,0.5-1.6s0.5-0.5,0.8-0.5
			c0.3,0,0.5,0.1,0.7,0.3c0.2,0.2,0.4,0.4,0.6,0.7l0.4-0.3c-0.4-0.5-0.7-0.9-1.1-1.2c-0.4-0.3-0.9-0.4-1.6-0.4
			c-0.6,0-1.2,0.2-1.7,0.6c-0.5,0.4-0.8,1.1-1.1,2.2l-0.6,2.6c-0.2,0.7-0.3,1.4-0.5,1.9c-0.2,0.5-0.5,1-0.8,1.3
			c-0.4,0.3-0.9,0.5-1.6,0.5h-2.8L145.3-98.7z"/>
		<path class="st4" d="M185.1-89.5V-90c-0.6,0-1-0.1-1.3-0.2s-0.5-0.3-0.6-0.6c-0.1-0.3-0.2-0.8-0.2-1.4V-105c0-0.6,0.1-1.1,0.2-1.4
			c0.1-0.3,0.3-0.5,0.6-0.6c0.3-0.1,0.7-0.2,1.3-0.2v-0.5c-0.4,0-0.9,0.1-1.5,0.1c-0.6,0-1.2,0-1.8,0c-0.7,0-1.3,0-1.9,0
			c-0.6,0-1.1,0-1.4-0.1v0.5c0.6,0,1,0.1,1.3,0.2c0.3,0.1,0.5,0.3,0.6,0.6c0.1,0.3,0.2,0.8,0.2,1.4v12.8c0,0.6-0.1,1.1-0.2,1.4
			c-0.1,0.3-0.3,0.5-0.6,0.6c-0.3,0.1-0.7,0.2-1.3,0.2v0.5c0.4,0,0.8,0,1.4-0.1c0.6,0,1.2,0,1.9,0c0.6,0,1.2,0,1.8,0
			C184.2-89.6,184.7-89.5,185.1-89.5z"/>
		<path class="st4" d="M215-89.4l6.3-16.2c0.3-0.7,0.5-1.1,0.9-1.3c0.3-0.2,0.6-0.3,0.9-0.3v-0.5c-0.3,0-0.8,0.1-1.3,0.1
			c-0.5,0-1,0-1.5,0c-0.7,0-1.3,0-1.9,0c-0.6,0-1.1,0-1.4-0.1v0.5c0.9,0,1.4,0.2,1.7,0.5c0.2,0.3,0.2,0.8-0.2,1.7l-4.8,12.8l0.4,0.3
			l-4.5-11.6c-0.4-0.9-0.5-1.7-0.5-2.2c0-0.5,0.2-0.9,0.6-1.1c0.4-0.2,0.9-0.3,1.6-0.4v-0.5c-0.5,0-1,0.1-1.5,0.1c-0.5,0-1,0-1.5,0
			c-0.4,0-0.8,0-1.1,0c-0.3,0-0.6,0-0.8-0.1v0.5c0.3,0.1,0.7,0.3,1.1,0.6c0.4,0.3,0.7,0.9,1,1.6l6,15.6c0.1,0,0.1,0,0.2,0
			C214.9-89.4,215-89.4,215-89.4z M218.2-100.3v-0.5h-7.7l0.3,0.5H218.2z"/>
	</g>
</symbol>
<use xlink:href="#New_Symbol_5"  width="792.9" height="252.2" id="XMLID_1_" x="-396.5" y="-126.1" transform="matrix(0.7276 0 0 -0.7276 290.9891 102.3025)" style="overflow:visible;"/>
</svg>
